<svg width="1280" height="720" xmlns="http://www.w3.org/2000/svg" xmlns:xlink="http://www.w3.org/1999/xlink" overflow="hidden"><defs><clipPath id="clip0"><rect x="0" y="0" width="1280" height="720"/></clipPath></defs><g clip-path="url(#clip0)"><rect x="0" y="0" width="1280" height="720" fill="#FFFFFF"/><path d="M1.78108-1.23377 187.297 266.578 183.735 269.046-1.78108 1.23377ZM189.626 262.33 191.685 276.717 178.939 269.732Z" fill="#FF0000" transform="matrix(1 0 0 -1 684 539.717)"/><path d="M1.78108-1.23377 187.297 266.578 183.735 269.046-1.78108 1.23377ZM189.626 262.33 191.685 276.717 178.939 269.732Z" fill="#FF0000" transform="matrix(1 0 0 -1 389 539.717)"/><path d="M0.618596-0.785709 180.905 141.155 179.668 142.727-0.618596 0.785709ZM181.713 137.973 185.524 146.065 176.764 144.259Z" fill="#0070C0" transform="matrix(1 0 0 -1 683 398.065)"/><path d="M0.618596-0.785709 180.905 141.155 179.668 142.727-0.618596 0.785709ZM181.713 137.973 185.524 146.065 176.764 144.259Z" fill="#0070C0" transform="matrix(1 0 0 -1 388 401.065)"/><path d="M290 236C290 211.147 310.147 191 335 191 359.853 191 380 211.147 380 236 380 260.853 359.853 281 335 281 310.147 281 290 260.853 290 236Z" fill="#51247A" fill-rule="evenodd"/><text fill="#FFFFFF" font-family="Cambria,Cambria_MSFontService,sans-serif" font-weight="400" font-size="27" transform="translate(309.443 244)">Sp1</text><text fill="#FFFFFF" font-family="Cambria,Cambria_MSFontService,sans-serif" font-weight="400" font-size="18" transform="translate(352.276 250)">t</text><path d="M291 392C291 367.147 310.923 347 335.5 347 360.077 347 380 367.147 380 392 380 416.853 360.077 437 335.5 437 310.923 437 291 416.853 291 392Z" fill="#0070C0" fill-rule="evenodd"/><text fill="#FFFFFF" font-family="Cambria,Cambria_MSFontService,sans-serif" font-weight="400" font-size="27" transform="translate(309.443 400)">Sp2</text><text fill="#FFFFFF" font-family="Cambria,Cambria_MSFontService,sans-serif" font-weight="400" font-size="18" transform="translate(352.276 406)">t</text><path d="M290 535C290 510.147 310.147 490 335 490 359.853 490 380 510.147 380 535 380 559.853 359.853 580 335 580 310.147 580 290 559.853 290 535Z" fill="#FF0000" fill-rule="evenodd"/><text fill="#FFFFFF" font-family="Cambria,Cambria_MSFontService,sans-serif" font-weight="400" font-size="27" transform="translate(309.443 543)">Sp3</text><text fill="#FFFFFF" font-family="Cambria,Cambria_MSFontService,sans-serif" font-weight="400" font-size="18" transform="translate(352.276 549)">t</text><path d="M583 237.5C583 212.923 603.147 193 628 193 652.853 193 673 212.923 673 237.5 673 262.077 652.853 282 628 282 603.147 282 583 262.077 583 237.5Z" fill="#51247A" fill-rule="evenodd"/><text fill="#FFFFFF" font-family="Cambria,Cambria_MSFontService,sans-serif" font-weight="400" font-size="27" transform="translate(597.38 246)">Sp1</text><text fill="#FFFFFF" font-family="Cambria,Cambria_MSFontService,sans-serif" font-weight="400" font-size="18" transform="translate(640.213 252)">t+1</text><path d="M583 393.5C583 368.923 603.147 349 628 349 652.853 349 673 368.923 673 393.5 673 418.077 652.853 438 628 438 603.147 438 583 418.077 583 393.5Z" fill="#0070C0" fill-rule="evenodd"/><text fill="#FFFFFF" font-family="Cambria,Cambria_MSFontService,sans-serif" font-weight="400" font-size="27" transform="translate(602.104 402)">Sp2</text><text fill="#FFFFFF" font-family="Cambria,Cambria_MSFontService,sans-serif" font-weight="400" font-size="18" transform="translate(644.937 408)">t+1</text><path d="M583 536C583 511.147 603.147 491 628 491 652.853 491 673 511.147 673 536 673 560.853 652.853 581 628 581 603.147 581 583 560.853 583 536Z" fill="#FF0000" fill-rule="evenodd"/><text fill="#FFFFFF" font-family="Cambria,Cambria_MSFontService,sans-serif" font-weight="400" font-size="27" transform="translate(597.38 544)">Sp3</text><text fill="#FFFFFF" font-family="Cambria,Cambria_MSFontService,sans-serif" font-weight="400" font-size="18" transform="translate(640.213 550)">t+1</text><path d="M876 239.5C876 214.923 896.147 195 921 195 945.853 195 966 214.923 966 239.5 966 264.077 945.853 284 921 284 896.147 284 876 264.077 876 239.5Z" fill="#51247A" fill-rule="evenodd"/><text fill="#FFFFFF" font-family="Cambria,Cambria_MSFontService,sans-serif" font-weight="400" font-size="27" transform="translate(890.545 248)">Sp1</text><text fill="#FFFFFF" font-family="Cambria,Cambria_MSFontService,sans-serif" font-weight="400" font-size="18" transform="translate(933.378 254)">t+2</text><path d="M876 395.5C876 370.923 896.147 351 921 351 945.853 351 966 370.923 966 395.5 966 420.077 945.853 440 921 440 896.147 440 876 420.077 876 395.5Z" fill="#0070C0" fill-rule="evenodd"/><text fill="#FFFFFF" font-family="Cambria,Cambria_MSFontService,sans-serif" font-weight="400" font-size="27" transform="translate(895.269 404)">Sp2</text><text fill="#FFFFFF" font-family="Cambria,Cambria_MSFontService,sans-serif" font-weight="400" font-size="18" transform="translate(938.103 410)">t+2</text><path d="M876 538C876 513.147 896.147 493 921 493 945.853 493 966 513.147 966 538 966 562.853 945.853 583 921 583 896.147 583 876 562.853 876 538Z" fill="#FF0000" fill-rule="evenodd"/><text fill="#FFFFFF" font-family="Cambria,Cambria_MSFontService,sans-serif" font-weight="400" font-size="27" transform="translate(890.545 546)">Sp3</text><text fill="#FFFFFF" font-family="Cambria,Cambria_MSFontService,sans-serif" font-weight="400" font-size="18" transform="translate(933.378 552)">t+2</text><path d="M388.085 240.32 567.831 356.457 565.661 359.816 385.915 243.68ZM568.323 352.012 575.146 363.564 561.81 362.091Z" fill="#51247A"/><path d="M390.171 393.64 561.518 504.35 557.176 511.07 385.829 400.36ZM562.499 495.46 576.146 518.564 549.475 515.618Z" fill="#0070C0"/><path d="M0.0190032-5.16663 161.891-4.57125 161.853 5.76201-0.0190032 5.16663ZM156.763-14.9235 187.706 0.690394 156.649 16.0763Z" transform="matrix(1 0 0 -1 386 242.69)"/><path d="M0.0149679-3.99997 164.513-3.38442 164.483 4.61553-0.0149679 3.99997ZM160.543-11.3993 184.498 0.690394 160.453 12.6005Z" transform="matrix(1 0 0 -1 387 396.69)"/><path d="M683.171 392.64 854.518 503.35 850.176 510.07 678.829 399.36ZM855.499 494.46 869.146 517.564 842.475 514.618Z" fill="#0070C0"/><path d="M0.0149679-3.99997 164.513-3.38442 164.483 4.61553-0.0149679 3.99997ZM160.543-11.3993 184.498 0.690394 160.453 12.6005Z" transform="matrix(1 0 0 -1 680 395.69)"/><path d="M682.085 236.32 861.831 352.457 859.661 355.816 679.915 239.68ZM862.323 348.012 869.146 359.564 855.81 358.091Z" fill="#51247A"/><path d="M0.0190032-5.16663 161.891-4.57125 161.853 5.76201-0.0190032 5.16663ZM156.763-14.9235 187.706 0.690394 156.649 16.0763Z" transform="matrix(1 0 0 -1 680 238.69)"/><path d="M0.0212046-5.66663 156.186-5.08226 156.144 6.251-0.0212046 5.66663ZM150.562-16.4367 184.498 0.690394 150.435 17.563Z" transform="matrix(1 0 0 -1 387.5 540.19)"/><path d="M0.0212046-5.66663 156.186-5.08226 156.144 6.251-0.0212046 5.66663ZM150.562-16.4367 184.498 0.690394 150.435 17.563Z" transform="matrix(1 0 0 -1 680.5 539.19)"/></g></svg>