<?xml version="1.0" encoding="UTF-8" standalone="no"?>
<!-- Created with Inkscape (http://www.inkscape.org/) -->

<svg
   xmlns:dc="http://purl.org/dc/elements/1.1/"
   xmlns:cc="http://creativecommons.org/ns#"
   xmlns:rdf="http://www.w3.org/1999/02/22-rdf-syntax-ns#"
   xmlns:svg="http://www.w3.org/2000/svg"
   xmlns="http://www.w3.org/2000/svg"
   xmlns:sodipodi="http://sodipodi.sourceforge.net/DTD/sodipodi-0.dtd"
   xmlns:inkscape="http://www.inkscape.org/namespaces/inkscape"
   width="289.45291mm"
   height="118.13313mm"
   viewBox="0 0 289.45291 118.13313"
   version="1.1"
   id="svg8"
   inkscape:version="0.92.4 (5da689c313, 2019-01-14)"
   sodipodi:docname="response_types.svg">
  <defs
     id="defs2">
    <clipPath
       id="clipPath26"
       clipPathUnits="userSpaceOnUse">
      <path
         inkscape:connector-curvature="0"
         id="path24"
         d="m 208.19,112.347 h 469 v 151 h -469 z" />
    </clipPath>
    <clipPath
       id="clipPath34"
       clipPathUnits="userSpaceOnUse">
      <path
         inkscape:connector-curvature="0"
         id="path32"
         d="M 442.689,187.847 Z" />
    </clipPath>
    <clipPath
       id="clipPath48"
       clipPathUnits="userSpaceOnUse">
      <path
         inkscape:connector-curvature="0"
         id="path46"
         d="m 208.19,112.347 h 469 v 151 h -469 z" />
    </clipPath>
    <clipPath
       id="clipPath184"
       clipPathUnits="userSpaceOnUse">
      <path
         inkscape:connector-curvature="0"
         id="path182"
         d="M 0,313.678 H 853.519 V 0 H 0 Z" />
    </clipPath>
    <clipPath
       id="clipPath192"
       clipPathUnits="userSpaceOnUse">
      <path
         inkscape:connector-curvature="0"
         id="path190"
         d="M 431.17,187.847 Z" />
    </clipPath>
    <clipPath
       id="clipPath300"
       clipPathUnits="userSpaceOnUse">
      <path
         inkscape:connector-curvature="0"
         id="path298"
         d="M 0,313.678 H 853.519 V 0 H 0 Z" />
    </clipPath>
    <clipPath
       id="clipPath308"
       clipPathUnits="userSpaceOnUse">
      <path
         inkscape:connector-curvature="0"
         id="path306"
         d="M 510.516,169.263 Z" />
    </clipPath>
    <clipPath
       id="clipPath324"
       clipPathUnits="userSpaceOnUse">
      <path
         inkscape:connector-curvature="0"
         id="path322"
         d="m 312.717,245.112 h 82.931 v 58.291 h -82.931 z" />
    </clipPath>
    <clipPath
       id="clipPath332"
       clipPathUnits="userSpaceOnUse">
      <path
         inkscape:connector-curvature="0"
         id="path330"
         d="M 354.182,274.258 Z" />
    </clipPath>
    <clipPath
       id="clipPath346"
       clipPathUnits="userSpaceOnUse">
      <path
         inkscape:connector-curvature="0"
         id="path344"
         d="m 312.717,245.112 h 82.931 v 58.291 h -82.931 z" />
    </clipPath>
    <clipPath
       id="clipPath386"
       clipPathUnits="userSpaceOnUse">
      <path
         inkscape:connector-curvature="0"
         id="path384"
         d="M 0,313.678 H 853.519 V 0 H 0 Z" />
    </clipPath>
  </defs>
  <sodipodi:namedview
     id="base"
     pagecolor="#ffffff"
     bordercolor="#666666"
     borderopacity="1.0"
     inkscape:pageopacity="0.0"
     inkscape:pageshadow="2"
     inkscape:zoom="0.98994949"
     inkscape:cx="404.77584"
     inkscape:cy="190.37198"
     inkscape:document-units="mm"
     inkscape:current-layer="layer1"
     showgrid="false"
     fit-margin-top="0"
     fit-margin-left="0"
     fit-margin-right="0"
     fit-margin-bottom="0"
     inkscape:window-width="1920"
     inkscape:window-height="1017"
     inkscape:window-x="1912"
     inkscape:window-y="-8"
     inkscape:window-maximized="1" />
  <metadata
     id="metadata5">
    <rdf:RDF>
      <cc:Work
         rdf:about="">
        <dc:format>image/svg+xml</dc:format>
        <dc:type
           rdf:resource="http://purl.org/dc/dcmitype/StillImage" />
        <dc:title></dc:title>
      </cc:Work>
    </rdf:RDF>
  </metadata>
  <g
     inkscape:label="Layer 1"
     inkscape:groupmode="layer"
     id="layer1"
     transform="translate(43.506959,-81.907257)">
    <g
       id="g20"
       transform="matrix(0.35277777,0,0,-0.35277777,-48.490475,196.85692)">
      <g
         id="g22"
         clip-path="url(#clipPath26)">
        <g
           id="g28">
          <g
             id="g30" />
          <g
             id="g38">
            <g
               clip-path="url(#clipPath34)"
               id="g36"
               style="opacity:0" />
          </g>
        </g>
      </g>
    </g>
    <path
       d="M 24.954329,157.2234 H 190.4071 V 103.95395 H 24.954329 Z"
       style="fill:#ffffff;fill-opacity:1;fill-rule:nonzero;stroke:none;stroke-width:0.35277778"
       id="path40"
       inkscape:connector-curvature="0" />
    <g
       id="g50"
       transform="matrix(0.35277777,0,0,-0.35277777,76.761332,119.44682)">
      <path
         d="m 0,0 c 0.143,0.503 0.143,0.575 0.143,0.826 0,0.647 -0.503,0.971 -1.042,0.971 -0.359,0 -0.933,-0.216 -1.256,-0.755 -0.072,-0.18 -0.359,-1.294 -0.503,-1.939 -0.252,-0.934 -0.503,-1.905 -0.719,-2.873 l -1.615,-6.465 c -0.144,-0.539 -1.688,-3.053 -4.058,-3.053 -1.833,0 -2.228,1.58 -2.228,2.91 0,1.651 0.611,3.878 1.832,7.039 0.574,1.472 0.718,1.867 0.718,2.586 0,1.615 -1.149,2.943 -2.944,2.943 -3.413,0 -4.741,-5.206 -4.741,-5.529 0,-0.36 0.358,-0.36 0.43,-0.36 0.359,0 0.395,0.072 0.575,0.647 0.97,3.375 2.406,4.453 3.628,4.453 0.288,0 0.897,0 0.897,-1.15 0,-0.896 -0.359,-1.831 -0.609,-2.514 -1.438,-3.806 -2.085,-5.853 -2.085,-7.542 0,-3.195 2.263,-4.273 4.383,-4.273 1.4,0 2.62,0.611 3.627,1.615 -0.468,-1.867 -0.899,-3.626 -2.335,-5.529 -0.934,-1.222 -2.298,-2.263 -3.95,-2.263 -0.503,0 -2.119,0.108 -2.73,1.508 0.575,0 1.041,0 1.544,0.431 0.36,0.324 0.719,0.791 0.719,1.472 0,1.114 -0.97,1.258 -1.33,1.258 -0.825,0 -2.011,-0.575 -2.011,-2.335 0,-1.795 1.582,-3.125 3.808,-3.125 3.699,0 7.399,3.269 8.403,7.327 z"
         style="fill:#231f20;fill-opacity:1;fill-rule:nonzero;stroke:none"
         id="path52"
         inkscape:connector-curvature="0" />
    </g>
    <g
       id="g54"
       transform="matrix(0.35277777,0,0,-0.35277777,79.67704,120.65297)">
      <path
         d="m 0,0 c 0,0.402 -0.3,0.953 -1.001,0.953 -0.678,0 -1.405,-0.651 -1.405,-1.378 0,-0.426 0.327,-0.953 1.003,-0.953 C -0.676,-1.378 0,-0.676 0,0 m -5.112,-12.731 c -0.1,-0.327 -0.225,-0.627 -0.225,-1.053 0,-1.178 1.001,-2.13 2.38,-2.13 2.506,0 3.609,3.458 3.609,3.834 0,0.325 -0.325,0.325 -0.4,0.325 -0.352,0 -0.377,-0.15 -0.477,-0.425 -0.576,-2.006 -1.679,-3.032 -2.657,-3.032 -0.5,0 -0.627,0.325 -0.627,0.876 0,0.577 0.177,1.053 0.402,1.605 0.251,0.676 0.526,1.353 0.801,2.004 0.227,0.602 1.128,2.883 1.228,3.183 0.077,0.252 0.152,0.552 0.152,0.802 0,1.178 -1.003,2.131 -2.381,2.131 -2.482,0 -3.635,-3.409 -3.635,-3.834 0,-0.327 0.35,-0.327 0.427,-0.327 0.35,0 0.375,0.125 0.45,0.402 0.651,2.154 1.754,3.058 2.683,3.058 0.4,0 0.626,-0.202 0.626,-0.879 0,-0.576 -0.151,-0.951 -0.778,-2.506 z"
         style="fill:#231f20;fill-opacity:1;fill-rule:nonzero;stroke:none"
         id="path56"
         inkscape:connector-curvature="0" />
    </g>
    <g
       id="g58"
       transform="matrix(0.35277777,0,0,-0.35277777,93.685845,120.04231)">
      <path
         d="m 0,0 c 0,0.791 -0.216,1.15 -0.503,1.15 -0.179,0 -0.466,-0.251 -0.502,-0.934 -0.144,-3.448 -2.514,-5.423 -5.028,-5.423 -2.263,0 -3.988,1.545 -5.747,3.089 -1.831,1.651 -3.698,3.304 -6.141,3.304 -3.915,0 -6.034,-3.951 -6.034,-7.219 0,-1.149 0.467,-1.149 0.503,-1.149 0.395,0 0.503,0.718 0.503,0.826 0.144,3.95 2.838,5.53 5.028,5.53 2.263,0 3.986,-1.544 5.746,-3.088 1.833,-1.653 3.7,-3.304 6.142,-3.304 C -2.119,-7.218 0,-3.268 0,0"
         style="fill:#231f20;fill-opacity:1;fill-rule:nonzero;stroke:none"
         id="path60"
         inkscape:connector-curvature="0" />
    </g>
    <g
       id="g62"
       transform="matrix(0.35277777,0,0,-0.35277777,100.72129,119.63662)">
      <path
         d="m 0,0 v 8.835 c 0,1.184 0.072,1.436 1.76,1.436 h 4.453 c 3.484,0 4.741,-3.052 4.741,-4.957 C 10.954,3.016 9.194,0 5.208,0 Z m 8.475,-0.323 c 3.485,0.681 5.963,2.98 5.963,5.637 0,3.125 -3.305,6.071 -7.973,6.071 H -6.681 v -1.114 h 0.863 c 2.765,0 2.837,-0.396 2.837,-1.688 v -18.926 c 0,-1.294 -0.072,-1.688 -2.837,-1.688 h -0.863 v -1.114 h 14.08 c 4.776,0 8.008,3.197 8.008,6.572 0,3.125 -2.944,5.819 -6.932,6.25 M 6.249,-12.031 H 1.76 c -1.688,0 -1.76,0.25 -1.76,1.436 v 9.805 h 6.752 c 3.555,0 5.064,-3.341 5.064,-5.747 0,-2.55 -1.867,-5.494 -5.567,-5.494"
         style="fill:#231f20;fill-opacity:1;fill-rule:nonzero;stroke:none"
         id="path64"
         inkscape:connector-curvature="0" />
    </g>
    <g
       id="g66"
       transform="matrix(0.35277777,0,0,-0.35277777,109.07613,118.67424)">
      <path
         d="m 0,0 -5.028,-0.393 v -1.114 c 2.335,0 2.658,-0.216 2.658,-1.975 v -9.661 c 0,-1.616 -0.394,-1.616 -2.8,-1.616 v -1.114 c 1.148,0.036 3.087,0.108 3.95,0.108 1.256,0 2.514,-0.072 3.734,-0.108 v 1.114 c -2.37,0 -2.514,0.178 -2.514,1.58 z m 0.144,6.25 c 0,1.149 -0.897,1.904 -1.903,1.904 -1.113,0 -1.903,-0.971 -1.903,-1.904 0,-0.97 0.79,-1.903 1.903,-1.903 1.006,0 1.903,0.753 1.903,1.903"
         style="fill:#231f20;fill-opacity:1;fill-rule:nonzero;stroke:none"
         id="path68"
         inkscape:connector-curvature="0" />
    </g>
    <g
       id="g70"
       transform="matrix(0.35277777,0,0,-0.35277777,111.75512,119.91531)">
      <path
         d="m 0,0 v -9.625 c 0,-1.616 -0.394,-1.616 -2.8,-1.616 v -1.114 c 1.256,0.036 3.088,0.108 4.058,0.108 0.933,0 2.801,-0.072 4.022,-0.108 v 1.114 c -2.407,0 -2.802,0 -2.802,1.616 v 6.608 c 0,3.735 2.55,5.746 4.849,5.746 2.262,0 2.657,-1.939 2.657,-3.987 v -8.367 c 0,-1.616 -0.395,-1.616 -2.801,-1.616 v -1.114 c 1.258,0.036 3.089,0.108 4.059,0.108 0.933,0 2.802,-0.072 4.022,-0.108 v 1.114 c -1.867,0 -2.766,0 -2.801,1.077 v 6.859 c 0,3.089 0,4.202 -1.113,5.495 -0.503,0.611 -1.689,1.328 -3.772,1.328 -2.622,0 -4.309,-1.543 -5.315,-3.77 v 3.77 L -2.8,3.125 V 2.011 C -0.287,2.011 0,1.759 0,0"
         style="fill:#231f20;fill-opacity:1;fill-rule:nonzero;stroke:none"
         id="path72"
         inkscape:connector-curvature="0" />
    </g>
    <g
       id="g74"
       transform="matrix(0.35277777,0,0,-0.35277777,123.34952,121.56243)">
      <path
         d="m 0,0 c 0,4.597 -3.593,8.403 -7.938,8.403 -4.489,0 -7.972,-3.914 -7.972,-8.403 0,-4.633 3.735,-8.081 7.936,-8.081 C -3.628,-8.081 0,-4.561 0,0 m -7.938,-7.183 c -1.544,0 -3.123,0.753 -4.094,2.406 -0.898,1.58 -0.898,3.771 -0.898,5.064 0,1.4 0,3.34 0.862,4.921 0.971,1.651 2.658,2.406 4.094,2.406 1.581,0 3.125,-0.791 4.06,-2.334 0.932,-1.546 0.932,-3.628 0.932,-4.993 0,-1.293 0,-3.232 -0.789,-4.812 -0.79,-1.617 -2.37,-2.658 -4.167,-2.658"
         style="fill:#231f20;fill-opacity:1;fill-rule:nonzero;stroke:none"
         id="path76"
         inkscape:connector-curvature="0" />
    </g>
    <g
       id="g78"
       transform="matrix(0.35277777,0,0,-0.35277777,125.09012,119.91531)">
      <path
         d="m 0,0 v -9.625 c 0,-1.616 -0.394,-1.616 -2.8,-1.616 v -1.114 c 1.256,0.036 3.088,0.108 4.058,0.108 0.933,0 2.801,-0.072 4.022,-0.108 v 1.114 c -2.407,0 -2.802,0 -2.802,1.616 v 6.608 c 0,3.735 2.55,5.746 4.849,5.746 2.262,0 2.657,-1.939 2.657,-3.987 v -8.367 c 0,-1.616 -0.395,-1.616 -2.801,-1.616 v -1.114 c 1.258,0.036 3.089,0.108 4.059,0.108 0.933,0 2.802,-0.072 4.022,-0.108 v 1.114 c -2.406,0 -2.801,0 -2.801,1.616 v 6.608 c 0,3.735 2.55,5.746 4.848,5.746 2.262,0 2.658,-1.939 2.658,-3.987 v -8.367 c 0,-1.616 -0.396,-1.616 -2.802,-1.616 v -1.114 c 1.258,0.036 3.089,0.108 4.06,0.108 0.932,0 2.8,-0.072 4.021,-0.108 v 1.114 c -1.867,0 -2.765,0 -2.801,1.077 v 6.859 c 0,3.089 0,4.202 -1.114,5.495 -0.502,0.611 -1.688,1.328 -3.77,1.328 -3.018,0 -4.597,-2.154 -5.208,-3.518 -0.503,3.125 -3.16,3.518 -4.777,3.518 -2.622,0 -4.309,-1.543 -5.315,-3.77 v 3.77 L -2.8,3.125 V 2.011 C -0.287,2.011 0,1.759 0,0"
         style="fill:#231f20;fill-opacity:1;fill-rule:nonzero;stroke:none"
         id="path80"
         inkscape:connector-curvature="0" />
    </g>
    <g
       id="g82"
       transform="matrix(0.35277777,0,0,-0.35277777,136.48696,118.67424)">
      <path
         d="m 0,0 -5.028,-0.393 v -1.114 c 2.335,0 2.658,-0.216 2.658,-1.975 v -9.661 c 0,-1.616 -0.394,-1.616 -2.8,-1.616 v -1.114 c 1.148,0.036 3.087,0.108 3.95,0.108 1.256,0 2.514,-0.072 3.734,-0.108 v 1.114 c -2.37,0 -2.514,0.178 -2.514,1.58 z m 0.144,6.25 c 0,1.149 -0.897,1.904 -1.903,1.904 -1.113,0 -1.903,-0.971 -1.903,-1.904 0,-0.97 0.79,-1.903 1.903,-1.903 1.006,0 1.903,0.753 1.903,1.903"
         style="fill:#231f20;fill-opacity:1;fill-rule:nonzero;stroke:none"
         id="path84"
         inkscape:connector-curvature="0" />
    </g>
    <g
       id="g86"
       transform="matrix(0.35277777,0,0,-0.35277777,141.95607,123.3109)">
      <path
         d="m 0,0 c 0.144,-1.437 1.114,-2.945 2.802,-2.945 0.755,0 2.945,0.503 2.945,3.412 V 2.478 H 4.849 V 0.467 c 0,-2.083 -0.899,-2.298 -1.292,-2.298 -1.186,0 -1.33,1.615 -1.33,1.795 v 7.183 c 0,1.507 0,2.909 -1.292,4.237 -1.402,1.402 -3.197,1.975 -4.921,1.975 -2.945,0 -5.423,-1.687 -5.423,-4.058 0,-1.078 0.719,-1.687 1.652,-1.687 1.006,0 1.653,0.717 1.653,1.651 0,0.432 -0.18,1.616 -1.833,1.652 0.97,1.258 2.73,1.653 3.88,1.653 1.759,0 3.806,-1.402 3.806,-4.597 V 6.643 C -2.082,6.536 -4.596,6.428 -6.859,5.351 -9.553,4.129 -10.451,2.262 -10.451,0.683 c 0,-2.91 3.484,-3.808 5.747,-3.808 2.37,0 4.022,1.438 4.704,3.125 M -0.251,5.889 V 2.298 c 0,-3.412 -2.586,-4.632 -4.202,-4.632 -1.759,0 -3.233,1.256 -3.233,3.053 0,1.975 1.51,4.956 7.435,5.17"
         style="fill:#231f20;fill-opacity:1;fill-rule:nonzero;stroke:none"
         id="path88"
         inkscape:connector-curvature="0" />
    </g>
    <g
       id="g90"
       transform="matrix(0.35277777,0,0,-0.35277777,146.32946,115.4809)">
      <path
         d="m 0,0 -5.17,-0.395 v -1.114 c 2.512,0 2.8,-0.252 2.8,-2.011 v -18.675 c 0,-1.616 -0.394,-1.616 -2.8,-1.616 v -1.114 c 1.184,0.036 3.087,0.108 3.986,0.108 0.897,0 2.658,-0.072 3.986,-0.108 v 1.114 c -2.406,0 -2.802,0 -2.802,1.616 z"
         style="fill:#231f20;fill-opacity:1;fill-rule:nonzero;stroke:none"
         id="path92"
         inkscape:connector-curvature="0" />
    </g>
    <g
       id="g94"
       transform="matrix(0.35277777,0,0,-0.35277777,151.77353,127.31437)">
      <path
         d="m 0,0 c 0,0.108 0,0.18 -0.611,0.789 -4.489,4.525 -5.638,11.314 -5.638,16.808 0,6.25 1.364,12.499 5.781,16.988 C 0,35.016 0,35.088 0,35.196 c 0,0.251 -0.144,0.359 -0.36,0.359 -0.359,0 -3.59,-2.442 -5.709,-7.003 -1.833,-3.952 -2.263,-7.938 -2.263,-10.955 0,-2.802 0.394,-7.147 2.371,-11.205 2.154,-4.417 5.242,-6.751 5.601,-6.751 C -0.144,-0.359 0,-0.252 0,0"
         style="fill:#231f20;fill-opacity:1;fill-rule:nonzero;stroke:none"
         id="path96"
         inkscape:connector-curvature="0" />
    </g>
    <g
       id="g98"
       transform="matrix(0.35277777,0,0,-0.35277777,156.2083,116.16564)">
      <path
         d="m 0,0 c 0,0.863 0,0.935 -0.826,0.935 -2.227,-2.299 -5.388,-2.299 -6.536,-2.299 v -1.114 c 0.717,0 2.836,0 4.705,0.935 v -18.603 c 0,-1.294 -0.108,-1.724 -3.341,-1.724 h -1.148 v -1.114 c 1.256,0.108 4.381,0.108 5.817,0.108 1.437,0 4.561,0 5.818,-0.108 v 1.114 H 3.339 C 0.108,-21.87 0,-21.476 0,-20.146 Z"
         style="fill:#231f20;fill-opacity:1;fill-rule:nonzero;stroke:none"
         id="path100"
         inkscape:connector-curvature="0" />
    </g>
    <g
       id="g102"
       transform="matrix(0.35277777,0,0,-0.35277777,161.4407,124.26122)">
      <path
         d="m 0,0 c 0,2.37 -0.899,3.77 -2.299,3.77 -1.186,0 -1.903,-0.896 -1.903,-1.903 0,-0.969 0.717,-1.903 1.903,-1.903 0.431,0 0.899,0.144 1.256,0.467 0.108,0.072 0.144,0.108 0.18,0.108 0.036,0 0.072,-0.036 0.072,-0.539 0,-2.658 -1.256,-4.812 -2.442,-5.998 -0.395,-0.394 -0.395,-0.466 -0.395,-0.574 0,-0.251 0.179,-0.395 0.359,-0.395 C -2.874,-6.967 0,-4.201 0,0"
         style="fill:#231f20;fill-opacity:1;fill-rule:nonzero;stroke:none"
         id="path104"
         inkscape:connector-curvature="0" />
    </g>
    <g
       id="g106"
       transform="matrix(0.35277777,0,0,-0.35277777,167.83515,119.54842)">
      <path
         d="M 0,0 H 4.058 C 2.874,-5.314 2.55,-6.859 2.55,-9.265 c 0,-0.538 0,-1.508 0.288,-2.73 0.359,-1.58 0.754,-1.795 1.292,-1.795 0.719,0 1.473,0.647 1.473,1.365 0,0.216 0,0.286 -0.215,0.789 -1.042,2.586 -1.042,4.921 -1.042,5.927 0,1.903 0.251,3.842 0.646,5.709 h 4.094 c 0.467,0 1.761,0 1.761,1.222 0,0.863 -0.755,0.863 -1.437,0.863 H -2.622 c -0.79,0 -2.154,0 -3.734,-1.689 -1.258,-1.4 -2.191,-3.052 -2.191,-3.232 0,-0.036 0,-0.359 0.43,-0.359 0.288,0 0.359,0.144 0.575,0.431 C -5.783,0 -3.698,0 -2.981,0 h 2.047 c -1.149,-4.345 -3.088,-8.69 -4.597,-11.959 -0.288,-0.538 -0.288,-0.609 -0.288,-0.861 0,-0.683 0.575,-0.97 1.043,-0.97 1.078,0 1.364,1.006 1.795,2.334 0.503,1.653 0.503,1.724 0.97,3.52 z"
         style="fill:#231f20;fill-opacity:1;fill-rule:nonzero;stroke:none"
         id="path108"
         inkscape:connector-curvature="0" />
    </g>
    <g
       id="g110"
       transform="matrix(0.35277777,0,0,-0.35277777,174.57426,120.65297)">
      <path
         d="m 0,0 c 0,0.402 -0.3,0.953 -1.001,0.953 -0.678,0 -1.405,-0.651 -1.405,-1.378 0,-0.426 0.327,-0.953 1.003,-0.953 C -0.676,-1.378 0,-0.676 0,0 m -5.112,-12.731 c -0.1,-0.327 -0.225,-0.627 -0.225,-1.053 0,-1.178 1.001,-2.13 2.38,-2.13 2.506,0 3.609,3.458 3.609,3.834 0,0.325 -0.325,0.325 -0.4,0.325 -0.352,0 -0.377,-0.15 -0.477,-0.425 -0.576,-2.006 -1.679,-3.032 -2.657,-3.032 -0.5,0 -0.627,0.325 -0.627,0.876 0,0.577 0.177,1.053 0.402,1.605 0.251,0.676 0.526,1.353 0.801,2.004 0.227,0.602 1.128,2.883 1.228,3.183 0.077,0.252 0.152,0.552 0.152,0.802 0,1.178 -1.003,2.131 -2.381,2.131 -2.482,0 -3.635,-3.409 -3.635,-3.834 0,-0.327 0.35,-0.327 0.427,-0.327 0.35,0 0.375,0.125 0.45,0.402 0.651,2.154 1.754,3.058 2.683,3.058 0.4,0 0.626,-0.202 0.626,-0.879 0,-0.576 -0.151,-0.951 -0.778,-2.506 z"
         style="fill:#231f20;fill-opacity:1;fill-rule:nonzero;stroke:none"
         id="path112"
         inkscape:connector-curvature="0" />
    </g>
    <g
       id="g114"
       transform="matrix(0.35277777,0,0,-0.35277777,179.56959,121.10664)">
      <path
         d="m 0,0 c 0,2.802 -0.396,7.147 -2.371,11.206 -2.154,4.418 -5.243,6.752 -5.603,6.752 -0.215,0 -0.359,-0.144 -0.359,-0.359 0,-0.108 0,-0.18 0.683,-0.827 3.518,-3.555 5.567,-9.266 5.567,-16.772 0,-6.141 -1.33,-12.462 -5.783,-16.987 -0.467,-0.43 -0.467,-0.502 -0.467,-0.61 0,-0.215 0.144,-0.359 0.359,-0.359 0.36,0 3.592,2.442 5.711,7.003 C -0.432,-7.003 0,-3.016 0,0"
         style="fill:#231f20;fill-opacity:1;fill-rule:nonzero;stroke:none"
         id="path116"
         inkscape:connector-curvature="0" />
    </g>
    <g
       id="g118"
       transform="matrix(0.35277777,0,0,-0.35277777,37.391791,134.46034)">
      <path
         d="m 0,0 -5.17,-0.395 v -1.114 c 2.512,0 2.8,-0.252 2.8,-2.011 v -18.675 c 0,-1.616 -0.394,-1.616 -2.8,-1.616 v -1.114 c 1.184,0.036 3.087,0.108 3.986,0.108 0.896,0 2.657,-0.072 3.985,-0.108 v 1.114 c -2.406,0 -2.801,0 -2.801,1.616 z"
         style="fill:#231f20;fill-opacity:1;fill-rule:nonzero;stroke:none"
         id="path120"
         inkscape:connector-curvature="0" />
    </g>
    <g
       id="g122"
       transform="matrix(0.35277777,0,0,-0.35277777,44.609378,140.54191)">
      <path
         d="m 0,0 c 0,4.597 -3.592,8.403 -7.938,8.403 -4.489,0 -7.971,-3.914 -7.971,-8.403 0,-4.633 3.734,-8.081 7.936,-8.081 C -3.628,-8.081 0,-4.561 0,0 m -7.938,-7.183 c -1.543,0 -3.123,0.753 -4.093,2.406 -0.899,1.58 -0.899,3.771 -0.899,5.064 0,1.4 0,3.34 0.863,4.921 0.97,1.651 2.658,2.406 4.094,2.406 1.581,0 3.125,-0.79 4.059,-2.334 0.933,-1.546 0.933,-3.628 0.933,-4.993 0,-1.293 0,-3.232 -0.789,-4.812 -0.791,-1.617 -2.371,-2.658 -4.168,-2.658"
         style="fill:#231f20;fill-opacity:1;fill-rule:nonzero;stroke:none"
         id="path124"
         inkscape:connector-curvature="0" />
    </g>
    <g
       id="g126"
       transform="matrix(0.35277777,0,0,-0.35277777,47.804768,141.07436)">
      <path
         d="m 0,0 c -3.125,0 -3.125,3.592 -3.125,4.419 0,0.969 0.036,2.119 0.575,3.015 C -2.263,7.866 -1.437,8.872 0,8.872 3.123,8.872 3.123,5.28 3.123,4.455 3.123,3.484 3.087,2.334 2.55,1.437 2.262,1.006 1.436,0 0,0 m -4.167,-1.4 c 0,0.144 0,0.97 0.611,1.688 1.401,-1.005 2.873,-1.113 3.556,-1.113 3.339,0 5.817,2.478 5.817,5.244 0,1.328 -0.573,2.656 -1.472,3.483 1.292,1.221 2.586,1.401 3.233,1.401 0.072,0 0.25,0 0.358,-0.036 C 7.542,9.123 7.362,8.728 7.362,8.297 c 0,-0.611 0.466,-1.042 1.041,-1.042 0.359,0 1.042,0.251 1.042,1.078 0,0.611 -0.431,1.759 -1.831,1.759 -0.719,0 -2.3,-0.215 -3.808,-1.687 C 2.298,9.589 0.789,9.697 0,9.697 c -3.341,0 -5.819,-2.478 -5.819,-5.242 0,-1.582 0.791,-2.946 1.688,-3.7 -0.466,-0.539 -1.113,-1.724 -1.113,-2.982 0,-1.112 0.467,-2.478 1.58,-3.195 -2.155,-0.611 -3.303,-2.155 -3.303,-3.592 0,-2.586 3.554,-4.561 7.936,-4.561 4.239,0 7.973,1.831 7.973,4.633 0,1.258 -0.503,3.089 -2.334,4.094 -1.903,1.006 -3.986,1.006 -6.177,1.006 -0.898,0 -2.442,0 -2.694,0.036 -1.15,0.144 -1.904,1.256 -1.904,2.406 m 5.172,-11.348 c -3.627,0 -6.105,1.831 -6.105,3.734 0,1.652 1.364,2.981 2.945,3.089 h 2.119 c 3.088,0 7.111,0 7.111,-3.089 0,-1.939 -2.55,-3.734 -6.07,-3.734"
         style="fill:#231f20;fill-opacity:1;fill-rule:nonzero;stroke:none"
         id="path128"
         inkscape:connector-curvature="0" />
    </g>
    <g
       id="g130"
       transform="matrix(0.35277777,0,0,-0.35277777,53.549013,137.65354)">
      <path
         d="m 0,0 -5.028,-0.394 v -1.114 c 2.334,0 2.658,-0.215 2.658,-1.975 v -9.661 c 0,-1.615 -0.394,-1.615 -2.8,-1.615 v -1.114 c 1.148,0.035 3.087,0.107 3.95,0.107 1.256,0 2.514,-0.072 3.734,-0.107 v 1.114 C 0.144,-14.759 0,-14.581 0,-13.18 Z m 0.144,6.25 c 0,1.148 -0.897,1.903 -1.903,1.903 -1.113,0 -1.904,-0.97 -1.904,-1.903 0,-0.97 0.791,-1.903 1.904,-1.903 1.006,0 1.903,0.753 1.903,1.903"
         style="fill:#231f20;fill-opacity:1;fill-rule:nonzero;stroke:none"
         id="path132"
         inkscape:connector-curvature="0" />
    </g>
    <g
       id="g134"
       transform="matrix(0.35277777,0,0,-0.35277777,56.990784,138.18546)">
      <path
         d="M 0,0 H 5.136 V 1.114 H 0 V 7.722 H -0.897 C -0.933,4.777 -2.011,0.934 -5.53,0.791 V 0 h 3.052 v -9.913 c 0,-4.417 3.34,-4.848 4.634,-4.848 2.549,0 3.555,2.55 3.555,4.848 v 2.047 H 4.812 v -1.975 c 0,-2.657 -1.076,-4.022 -2.406,-4.022 C 0,-13.863 0,-10.595 0,-9.984 Z"
         style="fill:#231f20;fill-opacity:1;fill-rule:nonzero;stroke:none"
         id="path136"
         inkscape:connector-curvature="0" />
    </g>
    <g
       id="g138"
       transform="matrix(0.35277777,0,0,-0.35277777,63.931863,146.29381)">
      <path
         d="m 0,0 c 0,0.108 0,0.18 -0.611,0.789 -4.489,4.525 -5.638,11.314 -5.638,16.808 0,6.25 1.364,12.498 5.781,16.987 C 0,35.016 0,35.087 0,35.195 c 0,0.252 -0.144,0.36 -0.36,0.36 -0.359,0 -3.59,-2.442 -5.709,-7.004 -1.833,-3.951 -2.263,-7.937 -2.263,-10.954 0,-2.802 0.394,-7.147 2.371,-11.205 2.154,-4.417 5.242,-6.751 5.601,-6.751 C -0.144,-0.359 0,-0.252 0,0"
         style="fill:#231f20;fill-opacity:1;fill-rule:nonzero;stroke:none"
         id="path140"
         inkscape:connector-curvature="0" />
    </g>
    <g
       id="g142"
       transform="matrix(0.35277777,0,0,-0.35277777,68.034315,138.52776)">
      <path
         d="M 0,0 H 4.058 C 2.874,-5.314 2.55,-6.859 2.55,-9.266 c 0,-0.537 0,-1.507 0.288,-2.729 0.359,-1.58 0.754,-1.796 1.292,-1.796 0.719,0 1.473,0.647 1.473,1.366 0,0.216 0,0.286 -0.215,0.789 -1.042,2.586 -1.042,4.92 -1.042,5.927 0,1.903 0.251,3.842 0.646,5.709 h 4.094 c 0.467,0 1.761,0 1.761,1.222 0,0.862 -0.755,0.862 -1.437,0.862 H -2.622 c -0.79,0 -2.154,0 -3.734,-1.689 -1.258,-1.4 -2.191,-3.051 -2.191,-3.231 0,-0.036 0,-0.359 0.43,-0.359 0.288,0 0.359,0.144 0.575,0.431 C -5.783,0 -3.698,0 -2.981,0 h 2.047 c -1.149,-4.345 -3.088,-8.691 -4.597,-11.959 -0.288,-0.538 -0.288,-0.61 -0.288,-0.861 0,-0.683 0.575,-0.971 1.043,-0.971 1.078,0 1.364,1.007 1.795,2.335 0.503,1.653 0.503,1.723 0.97,3.52 z"
         style="fill:#231f20;fill-opacity:1;fill-rule:nonzero;stroke:none"
         id="path144"
         inkscape:connector-curvature="0" />
    </g>
    <g
       id="g146"
       transform="matrix(0.35277777,0,0,-0.35277777,74.738151,139.63238)">
      <path
         d="m 0,0 c 0,0.401 -0.3,0.953 -1.001,0.953 -0.678,0 -1.405,-0.652 -1.405,-1.378 0,-0.427 0.327,-0.953 1.003,-0.953 C -0.676,-1.378 0,-0.677 0,0 m -5.112,-12.731 c -0.1,-0.327 -0.225,-0.627 -0.225,-1.053 0,-1.179 1.001,-2.13 2.38,-2.13 2.506,0 3.609,3.458 3.609,3.834 0,0.325 -0.325,0.325 -0.4,0.325 -0.352,0 -0.377,-0.15 -0.477,-0.425 -0.576,-2.006 -1.679,-3.033 -2.657,-3.033 -0.5,0 -0.627,0.326 -0.627,0.877 0,0.577 0.177,1.053 0.402,1.605 0.251,0.676 0.526,1.353 0.801,2.004 0.227,0.602 1.128,2.883 1.228,3.183 0.077,0.252 0.152,0.552 0.152,0.802 0,1.178 -1.003,2.131 -2.381,2.131 -2.482,0 -3.635,-3.409 -3.635,-3.834 0,-0.327 0.35,-0.327 0.427,-0.327 0.35,0 0.375,0.125 0.45,0.402 0.651,2.154 1.754,3.058 2.683,3.058 0.4,0 0.626,-0.202 0.626,-0.879 0,-0.576 -0.151,-0.951 -0.778,-2.506 z"
         style="fill:#231f20;fill-opacity:1;fill-rule:nonzero;stroke:none"
         id="path148"
         inkscape:connector-curvature="0" />
    </g>
    <g
       id="g150"
       transform="matrix(0.35277777,0,0,-0.35277777,79.768762,140.08605)">
      <path
         d="m 0,0 c 0,2.802 -0.396,7.147 -2.371,11.206 -2.154,4.418 -5.243,6.752 -5.603,6.752 -0.215,0 -0.359,-0.144 -0.359,-0.359 0,-0.108 0,-0.18 0.683,-0.827 3.518,-3.555 5.567,-9.266 5.567,-16.772 0,-6.141 -1.33,-12.462 -5.783,-16.987 -0.467,-0.43 -0.467,-0.502 -0.467,-0.61 0,-0.215 0.144,-0.359 0.359,-0.359 0.36,0 3.592,2.442 5.711,7.003 C -0.432,-7.003 0,-3.016 0,0"
         style="fill:#231f20;fill-opacity:1;fill-rule:nonzero;stroke:none"
         id="path152"
         inkscape:connector-curvature="0" />
    </g>
    <g
       id="g154"
       transform="matrix(0.35277777,0,0,-0.35277777,93.207126,139.11037)">
      <path
         d="m 0,0 c 0.54,0 1.221,0 1.221,0.719 0,0.718 -0.681,0.718 -1.185,0.718 h -21.512 c -0.503,0 -1.186,0 -1.186,-0.718 C -22.662,0 -21.979,0 -21.44,0 Z m 0.036,-6.967 c 0.504,0 1.185,0 1.185,0.719 0,0.717 -0.681,0.717 -1.221,0.717 h -21.44 c -0.539,0 -1.222,0 -1.222,-0.717 0,-0.719 0.683,-0.719 1.186,-0.719 z"
         style="fill:#231f20;fill-opacity:1;fill-rule:nonzero;stroke:none"
         id="path156"
         inkscape:connector-curvature="0" />
    </g>
    <g
       id="g158"
       transform="matrix(0.35277777,0,0,-0.35277777,103.95203,140.26353)">
      <path
         d="m 0,0 c 0,5.639 -3.34,7.398 -5.998,7.398 -4.92,0 -9.661,-5.134 -9.661,-10.198 0,-3.341 2.155,-6.07 5.819,-6.07 2.262,0 4.848,0.826 7.578,3.017 0.467,-1.903 1.651,-3.017 3.267,-3.017 1.905,0 3.017,1.975 3.017,2.55 0,0.251 -0.215,0.359 -0.431,0.359 -0.252,0 -0.358,-0.108 -0.466,-0.359 C 2.478,-8.08 1.185,-8.08 1.113,-8.08 0,-8.08 0,-5.278 0,-4.417 0,-3.662 0,-3.591 0.36,-3.159 3.735,1.078 4.489,5.244 4.489,5.28 4.489,5.352 4.453,5.639 4.058,5.639 3.699,5.639 3.699,5.531 3.519,4.884 2.874,2.622 1.688,-0.106 0,-2.227 Z m -2.406,-4.919 c -3.161,-2.765 -5.927,-3.161 -7.362,-3.161 -2.155,0 -3.233,1.616 -3.233,3.914 0,1.76 0.934,5.639 2.083,7.471 1.689,2.622 3.628,3.304 4.884,3.304 3.556,0 3.556,-4.704 3.556,-7.506 0,-1.33 0,-3.412 0.072,-4.022"
         style="fill:#231f20;fill-opacity:1;fill-rule:nonzero;stroke:none"
         id="path160"
         inkscape:connector-curvature="0" />
    </g>
    <g
       id="g162"
       transform="matrix(0.35277777,0,0,-0.35277777,114.02666,140.33906)">
      <path
         d="m 0,0 h 10.02 c 0.504,0 1.185,0 1.185,0.717 0,0.719 -0.681,0.719 -1.185,0.719 H 0 v 10.056 c 0,0.503 0,1.185 -0.719,1.185 -0.718,0 -0.718,-0.682 -0.718,-1.185 V 1.436 h -10.055 c -0.503,0 -1.186,0 -1.186,-0.719 C -12.678,0 -11.995,0 -11.492,0 h 10.055 v -10.056 c 0,-0.503 0,-1.186 0.718,-1.186 0.719,0 0.719,0.683 0.719,1.186 z"
         style="fill:#231f20;fill-opacity:1;fill-rule:nonzero;stroke:none"
         id="path164"
         inkscape:connector-curvature="0" />
    </g>
    <g
       id="g166"
       transform="matrix(0.35277777,0,0,-0.35277777,128.79429,136.04399)">
      <path
         d="m 0,0 c 0,2.692 -1.975,4.919 -4.884,4.919 -2.083,0 -3.088,-0.574 -4.346,-1.508 -1.975,-1.436 -3.95,-4.92 -4.632,-7.65 l -5.71,-22.805 c -0.036,-0.143 0.142,-0.359 0.43,-0.359 0.287,0 0.395,0.072 0.431,0.18 l 2.514,9.912 c 0.683,-2.155 2.263,-3.484 4.885,-3.484 2.621,0 5.315,1.257 6.931,2.837 1.725,1.652 2.873,3.95 2.873,6.608 0,2.586 -1.328,4.453 -2.622,5.352 C -2.047,-4.812 0,-2.586 0,0 m -6.464,-5.963 c -0.467,-0.179 -0.863,-0.251 -1.723,-0.251 -0.504,0 -1.222,-0.036 -1.582,0.144 0.072,0.359 1.366,0.287 1.761,0.287 0.753,0 1.077,0 1.544,-0.18 m 4.453,6.788 c 0,-2.514 -1.364,-5.1 -3.231,-6.212 -0.97,0.359 -1.689,0.431 -2.766,0.431 -0.754,0 -2.765,0.036 -2.765,-1.15 -0.036,-1.007 1.831,-0.899 2.478,-0.899 1.328,0 1.867,0.036 2.945,0.467 1.364,-1.292 1.544,-2.406 1.58,-4.057 0.072,-2.083 -0.791,-4.777 -1.796,-6.178 -1.401,-1.94 -3.807,-3.232 -5.854,-3.232 -2.73,0 -4.094,2.083 -4.094,4.633 0,0.36 0,0.899 0.18,1.58 l 2.298,9.086 c 0.791,3.089 3.375,8.8 7.686,8.8 2.083,0 3.339,-1.114 3.339,-3.269"
         style="fill:#231f20;fill-opacity:1;fill-rule:nonzero;stroke:none"
         id="path168"
         inkscape:connector-curvature="0" />
    </g>
    <g
       id="g170"
       transform="matrix(0.35277777,0,0,-0.35277777,133.53739,139.42734)">
      <path
         d="m 0,0 c 0.216,0.934 1.043,4.239 3.557,4.239 0.178,0 1.04,0 1.795,-0.467 C 4.346,3.592 3.628,2.694 3.628,1.833 c 0,-0.575 0.394,-1.258 1.365,-1.258 0.79,0 1.939,0.647 1.939,2.083 0,1.869 -2.119,2.37 -3.339,2.37 -2.085,0 -3.341,-1.903 -3.772,-2.728 -0.899,2.37 -2.838,2.728 -3.878,2.728 -3.736,0 -5.783,-4.633 -5.783,-5.529 0,-0.36 0.359,-0.36 0.431,-0.36 0.287,0 0.395,0.072 0.467,0.395 1.22,3.807 3.591,4.705 4.813,4.705 0.681,0 1.939,-0.323 1.939,-2.406 0,-1.114 -0.611,-3.52 -1.939,-8.549 -0.575,-2.226 -1.833,-3.734 -3.413,-3.734 -0.215,0 -1.04,0 -1.795,0.467 0.898,0.18 1.687,0.933 1.687,1.939 0,0.969 -0.789,1.257 -1.328,1.257 -1.078,0 -1.975,-0.933 -1.975,-2.083 0,-1.652 1.796,-2.371 3.375,-2.371 2.371,0 3.664,2.514 3.772,2.73 0.43,-1.328 1.724,-2.73 3.878,-2.73 3.699,0 5.747,4.633 5.747,5.532 0,0.359 -0.323,0.359 -0.431,0.359 -0.324,0 -0.395,-0.144 -0.467,-0.395 -1.186,-3.844 -3.628,-4.705 -4.777,-4.705 -1.4,0 -1.975,1.149 -1.975,2.37 0,0.791 0.216,1.58 0.611,3.161 z"
         style="fill:#231f20;fill-opacity:1;fill-rule:nonzero;stroke:none"
         id="path172"
         inkscape:connector-curvature="0" />
    </g>
    <g
       id="g174"
       transform="matrix(0.35277777,0,0,-0.35277777,139.40232,139.63238)">
      <path
         d="m 0,0 c 0,0.401 -0.3,0.953 -1.001,0.953 -0.678,0 -1.405,-0.652 -1.405,-1.378 0,-0.427 0.327,-0.953 1.003,-0.953 C -0.676,-1.378 0,-0.677 0,0 m -5.112,-12.731 c -0.1,-0.327 -0.225,-0.627 -0.225,-1.053 0,-1.179 1.001,-2.13 2.38,-2.13 2.506,0 3.609,3.458 3.609,3.834 0,0.325 -0.325,0.325 -0.4,0.325 -0.352,0 -0.377,-0.15 -0.477,-0.425 -0.576,-2.006 -1.679,-3.033 -2.657,-3.033 -0.5,0 -0.627,0.326 -0.627,0.877 0,0.577 0.177,1.053 0.402,1.605 0.251,0.676 0.526,1.353 0.801,2.004 0.227,0.602 1.128,2.883 1.228,3.183 0.077,0.252 0.152,0.552 0.152,0.802 0,1.178 -1.003,2.131 -2.381,2.131 -2.482,0 -3.635,-3.409 -3.635,-3.834 0,-0.327 0.35,-0.327 0.427,-0.327 0.35,0 0.375,0.125 0.45,0.402 0.651,2.154 1.754,3.058 2.683,3.058 0.4,0 0.626,-0.202 0.626,-0.879 0,-0.576 -0.151,-0.951 -0.778,-2.506 z"
         style="fill:#231f20;fill-opacity:1;fill-rule:nonzero;stroke:none"
         id="path176"
         inkscape:connector-curvature="0" />
    </g>
    <g
       id="g178"
       transform="matrix(0.35277777,0,0,-0.35277777,-48.490475,196.85692)">
      <g
         id="g180"
         clip-path="url(#clipPath184)">
        <g
           id="g186">
          <g
             id="g188" />
          <g
             id="g200">
            <g
               clip-path="url(#clipPath192)"
               id="g198"
               style="opacity:0">
              <g
                 transform="translate(431.1697,187.8472)"
                 id="g196">
                <path
                   d="M 0,0 C 0,0 0,0 0,0 0,0 0,0 0,0 0,0 0,0 0,0 0,0 0,0 0,0 0,0 0,0 0,0 0,0 0,0 0,0 0,0 0,0 0,0 0,0 0,0 0,0 0,0 0,0 0,0 0,0 0,0 0,0 0,0 0,0 0,0 0,0 0,0 0,0 0,0 0,0 0,0 0,0 0,0 0,0 0,0 0,0 0,0 0,0 0,0 0,0 V 0 C 0,0 0,0 0,0 0,0 0,0 0,0 0,0 0,0 0,0 0,0 0,0 0,0 0,0 0,0 0,0 0,0 0,0 0,0 V 0 C 0,0 0,0 0,0 0,0 0,0 0,0 0,0 0,0 0,0 0,0 0,0 0,0 0,0 0,0 0,0 0,0 0,0 0,0 0,0 0,0 0,0 V 0 C 0,0 0,0 0,0 V 0 C 0,0 0,0 0,0 0,0 0,0 0,0 0,0 0,0 0,0 0,0 0,0 0,0 0,0 0,0 0,0 0,0 0,0 0,0 0,0 0,0 0,0 0,0 0,0 0,0 V 0 C 0,0 0,0 0,0 0,0 0,0 0,0 0,0 0,0 0,0 0,0 0,0 0,0 V 0 C 0,0 0,0 0,0 V 0 C 0,0 0,0 0,0 0,0 0,0 0,0 0,0 0,0 0,0 0,0 0,0 0,0 0,0 0,0 0,0 0,0 0,0 0,0 0,0 0,0 0,0 0,0 0,0 0,0 0,0 0,0 0,0 V 0 C 0,0 0,0 0,0 0,0 0,0 0,0 0,0 0,0 0,0 0,0 0,0 0,0 0,0 0,0 0,0 0,0 0,0 0,0 0,0 0,0 0,0 0,0 0,0 0,0 0,0 0,0 0,0 0,0 0,0 0,0 0,0 0,0 0,0 0,0 0,0 0,0 0,0 0,0 0,0 0,0 0,0 0,0 V 0 C 0,0 0,0 0,0 0,0 0,0 0,0 0,0 0,0 0,0 0,0 0,0 0,0 0,0 0,0 0,0 0,0 0,0 0,0 0,0 0,0 0,0 0,0 0,0 0,0 0,0 0,0 0,0 0,0 0,0 0,0 0,0 0,0 0,0 0,0 0,0 0,0 0,0 0,0 0,0 0,0 0,0 0,0 V 0 C 0,0 0,0 0,0 0,0 0,0 0,0 0,0 0,0 0,0 0,0 0,0 0,0 V 0 C 0,0 0,0 0,0 0,0 0,0 0,0 0,0 0,0 0,0 0,0 0,0 0,0 0,0 0,0 0,0 0,0 0,0 0,0 0,0 0,0 0,0 V 0 C 0,0 0,0 0,0 0,0 0,0 0,0 0,0 0,0 0,0 0,0 0,0 0,0 0,0 0,0 0,0 0,0 0,0 0,0 0,0 0,0 0,0 0,0 0,0 0,0 0,0 0,0 0,0 0,0 0,0 0,0 0,0 0,0 0,0 0,0 0,0 0,0 0,0 0,0 0,0 0,0 0,0 0,0 0,0 0,0 0,0 0,0 0,0 0,0 0,0 0,0 0,0 0,0 0,0 0,0 0,0 0,0 0,0 0,0 0,0 0,0 0,0 0,0 0,0 0,0 0,0 0,0 0,0 0,0 0,0 V 0 C 0,0 0,0 0,0 0,0 0,0 0,0 0,0 0,0 0,0 0,0 0,0 0,0 0,0 0,0 0,0 0,0 0,0 0,0 0,0 0,0 0,0 0,0 0,0 0,0 0,0 0,0 0,0 0,0 0,0 0,0 0,0 0,0 0,0 0,0 0,0 0,0 0,0 0,0 0,0 0,0 0,0 0,0 V 0 C 0,0 0,0 0,0 0,0 0,0 0,0 0,0 0,0 0,0 0,0 0,0 0,0 0,0 0,0 0,0 0,0 0,0 0,0 0,0 0,0 0,0 0,0 0,0 0,0 0,0 0,0 0,0 0,0 0,0 0,0 0,0 0,0 0,0 0,0 0,0 0,0 0,0 0,0 0,0 0,0 0,0 0,0 0,0 0,0 0,0 0,0 0,0 0,0 0,0 0,0 0,0 0,0 0,0 0,0 0,0 0,0 0,0 Z"
                   style="fill:none;stroke:#000001;stroke-width:0.75;stroke-linecap:butt;stroke-linejoin:miter;stroke-miterlimit:10;stroke-dasharray:none;stroke-opacity:1"
                   id="path194"
                   inkscape:connector-curvature="0" />
              </g>
            </g>
          </g>
        </g>
      </g>
    </g>
    <text
       style="font-style:normal;font-variant:normal;font-weight:normal;font-stretch:normal;font-size:5.64444447px;font-family:sans-serif;-inkscape-font-specification:'sans-serif, Normal';font-variant-ligatures:normal;font-variant-caps:normal;font-variant-numeric:normal;font-feature-settings:normal;text-align:start;writing-mode:lr-tb;text-anchor:start;fill:#cf3a36;fill-opacity:1;fill-rule:nonzero;stroke:none;stroke-width:0.35277778"
       id="text204"
       x="-37.779507"
       y="119.99289">
      <tspan
         sodipodi:role="line"
         id="tspan1009"
         x="-37.779507"
         y="119.99289">type = 'expected'</tspan>
    </text>
    <text
       style="font-variant:normal;font-weight:300;font-stretch:normal;font-size:4.93888855px;font-family:'Roboto Light';-inkscape-font-specification:Roboto-Light;writing-mode:lr-tb;fill:#706e6e;fill-opacity:1;fill-rule:nonzero;stroke:none;stroke-width:0.35277778"
       id="text216"
       x="13.27802"
       y="119.46372">
      <tspan
         x="13.27802 16.019104 17.125414 19.469412 22.022818 24.521894"
         y="119.46372"
         sodipodi:role="line"
         id="tspan206"
         style="stroke-width:0.35277778">gives</tspan>
      <tspan
         x="-38.30867 -36.723286 -34.011841 -31.458433 -30.258286 -27.512262 -25.949598 -23.302353 -19.57843 -17.079353 -15.879203 -14.244432 -12.630403 -9.864624 -5.48877 -4.2886195 -2.7032366 0.0082136104 2.5616195 3.7617688 6.3151746 8.7154741 11.451619 14.005025 16.548552 18.133936 20.687342 23.433363"
         y="125.45953"
         sodipodi:role="line"
         id="tspan208"
         style="stroke-width:0.35277778">the draws from the expected</tspan>
      <tspan
         x="-38.30867 -35.969612 -33.322369 -32.216057 -29.50461 -26.951204 -25.751055 -22.985277 -21.350504 -20.150354 -18.564972 -15.853521 -13.300116 -12.099966 -9.3638229 -6.5980434 -4.0989661 -2.5135827 0.039822362 1.6992885 2.8056002 5.5713778 7.2308445"
         y="131.45534"
         sodipodi:role="line"
         id="tspan210"
         style="stroke-width:0.35277778">value of the posterior</tspan>
      <tspan
         x="-38.30867 -35.572529 -33.956032 -31.402626 -28.656601 -27.550293 -25.006765 -23.421381 -22.315069 -19.971071 -17.417667 -16.217518 -13.471496 -12.365185 -9.866107 -8.2807236 -6.6212564 -5.514946 -2.7788012 -0.067351058 1.5180321 2.6243429 5.390121 8.1015711 9.044898 10.245049 13.010826 14.670293 15.870442 17.455826 20.167276 22.720682"
         y="137.45116"
         sodipodi:role="line"
         id="tspan212"
         style="stroke-width:0.35277778">predictive distribution, or the</tspan>
      <tspan
         x="-38.30867 -35.699459 -33.355465 -30.802057 -29.238899 -26.591654 -23.850571 -21.297165 -20.097015 -17.331238 -15.696465 -14.496315 -11.94291 -9.2956648 -6.7521377 -4.0406871 -2.8405371 -0.094514824 1.4627167 4.109961 7.8338828 9.0340328 10.668805 12.281352 15.04713 19.422985"
         y="143.44696"
         sodipodi:role="line"
         id="tspan214"
         style="stroke-width:0.35277778">average of each draw from</tspan>
    </text>
    <text
       style="font-style:normal;font-variant:normal;font-weight:normal;font-stretch:normal;font-size:4.93888903px;font-family:'Roboto Light';-inkscape-font-specification:'Roboto Light, Normal';font-variant-ligatures:normal;font-variant-caps:normal;font-variant-numeric:normal;font-feature-settings:normal;text-align:start;writing-mode:lr-tb;text-anchor:start;fill:#706e6e;fill-opacity:1;fill-rule:nonzero;stroke:none;stroke-width:0.35277778"
       id="text220"
       x="-37.779507"
       y="149.44983">
      <tspan
         x="-37.779507"
         y="149.44983"
         sodipodi:role="line"
         id="tspan218"
         style="font-style:normal;font-variant:normal;font-weight:normal;font-stretch:normal;font-size:4.93888903px;font-family:'Roboto Light';-inkscape-font-specification:'Roboto Light, Normal';font-variant-ligatures:normal;font-variant-caps:normal;font-variant-numeric:normal;font-feature-settings:normal;text-align:start;writing-mode:lr-tb;text-anchor:start;stroke-width:0.35277778">type='response'</tspan>
    </text>
    <text
       style="font-variant:normal;font-weight:300;font-stretch:normal;font-size:4.93888855px;font-family:'Roboto Light';-inkscape-font-specification:Roboto-Light;writing-mode:lr-tb;fill:#706e6e;fill-opacity:1;fill-rule:nonzero;stroke:none;stroke-width:0.35277778"
       id="text228"
       x="-38.31065"
       y="158.44354">
      <tspan
         x="-38.31065 -36.996906 -34.285454 -33.085304 -31.978994 -29.213217 -26.472134 -25.365822 -22.866743 -21.281361 -20.175049 -17.631521 -16.431372 -14.807466 -12.25406 -9.5129757 -7.9009237 -5.3475184 -2.8484409 -0.34936339 0.75694829 3.5227275 6.2341762 7.1775026 8.377655 9.9630404 12.674486 13.780798 16.279875 17.480028 18.58634 21.085417"
         y="158.44354"
         sodipodi:role="line"
         id="tspan226"
         style="stroke-width:0.35277778">In logistic regression, this is</tspan>
    </text>
    <text
       style="font-variant:normal;font-weight:500;font-stretch:normal;font-size:4.93888855px;font-family:'Roboto Medium';-inkscape-font-specification:Roboto-Medium;writing-mode:lr-tb;fill:#706e6e;fill-opacity:1;fill-rule:nonzero;stroke:none;stroke-width:0.35277778"
       id="text232"
       x="-38.31065"
       y="164.43936">
      <tspan
         x="-38.31065 -35.253475 -34.023693 -31.213467 -28.467443 -27.237659 -25.59301 -22.851927 -20.199743 -18.969959 -16.189365 -14.542247 -11.732018 -8.9514246 -6.2794867 -3.4988911 -2.2394745 -0.98005807 0.27935845 1.9240093 4.3292484 5.559032 8.1074953 10.690536 13.362477 14.621891 17.274076"
         sodipodi:role="line"
         id="tspan230"
         style="stroke-width:0.35277778"
         y="164.43936">π on the probability scale</tspan>
    </text>
    <text
       style="font-variant:normal;font-weight:300;font-stretch:normal;font-size:4.93888855px;font-family:'Roboto Light';-inkscape-font-specification:Roboto-Light;writing-mode:lr-tb;fill:#706e6e;fill-opacity:1;fill-rule:nonzero;stroke:none;stroke-width:0.35277778"
       id="text236"
       x="-38.31065"
       y="170.43517">
      <tspan
         x="-38.31065 -36.735142 -33.969364 -32.309898 -31.109749 -30.003437 -27.291988 -24.943546 -22.390141 -20.730675 -18.231596 -15.678191 -14.478042 -13.37173 -10.605953 -7.8648686 -6.7585568 -5.1731753"
         y="170.43517"
         sodipodi:role="line"
         id="tspan234"
         style="stroke-width:0.35277778">(or inverse logit)</tspan>
    </text>
    <text
       style="font-style:normal;font-variant:normal;font-weight:normal;font-stretch:normal;font-size:5.64444447px;font-family:'Roboto Light';-inkscape-font-specification:'Roboto Light, Normal';font-variant-ligatures:normal;font-variant-caps:normal;font-variant-numeric:normal;font-feature-settings:normal;text-align:start;writing-mode:lr-tb;text-anchor:start;fill:#ea7428;fill-opacity:1;fill-rule:nonzero;stroke:none;stroke-width:0.35277778"
       id="text240"
       x="97.232216"
       y="159.13992">
      <tspan
         sodipodi:role="line"
         id="tspan1011"
         x="97.232216"
         y="159.13992">type = 'link'</tspan>
    </text>
    <text
       style="font-variant:normal;font-weight:300;font-stretch:normal;font-size:4.93888855px;font-family:'Roboto Light';-inkscape-font-specification:Roboto-Light;writing-mode:lr-tb;fill:#706e6e;fill-opacity:1;fill-rule:nonzero;stroke:none;stroke-width:0.35277778"
       id="text244"
       x="97.232216"
       y="165.13574">
      <tspan
         x="97.232216 99.973297 101.07961 103.42262 105.97602 108.47511 109.67525 111.26064 113.97208 116.52549 117.72564 120.46178 123.22756 125.72664 127.31203 129.86543 131.5249 132.63121 135.39699 137.05646 138.25661 141.00262 142.57468 145.22191 148.94583 151.44492 152.64507 155.41084 157.04562"
         y="165.13574"
         sodipodi:role="line"
         id="tspan242"
         style="stroke-width:0.35277778">gives the posterior draws of</tspan>
    </text>
    <text
       style="font-variant:normal;font-weight:500;font-stretch:normal;font-size:4.93888855px;font-family:'Roboto Medium';-inkscape-font-specification:Roboto-Medium;writing-mode:lr-tb;fill:#706e6e;fill-opacity:1;fill-rule:nonzero;stroke:none;stroke-width:0.35277778"
       id="text248"
       x="97.232216"
       y="171.13155">
      <tspan
         x="97.232216 100.28939 101.51917 104.3294 107.07542 108.30521 109.94985 112.69093 115.34312 116.57291 117.83232 120.64255 123.44289 124.70232 126.34696 127.57674 130.38698 132.12547 133.35526 134.61467 137.4249 140.22525 141.45503 144.26526 147.05078 149.83632 152.38478 153.61458 156.16304 158.74608 161.41801 162.67743"
         y="171.13155"
         sodipodi:role="line"
         id="tspan246"
         style="stroke-width:0.35277778">π on the logit or log odds scale</tspan>
    </text>
    <text
       style="font-style:normal;font-variant:normal;font-weight:normal;font-stretch:normal;font-size:5.64444447px;font-family:sans-serif;-inkscape-font-specification:'sans-serif, Normal';font-variant-ligatures:normal;font-variant-caps:normal;font-variant-numeric:normal;font-feature-settings:normal;text-align:start;writing-mode:lr-tb;text-anchor:start;fill:#663171;fill-opacity:1;fill-rule:nonzero;stroke:none;stroke-width:0.35277778"
       id="text274"
       x="186.71005"
       y="119.43127">
      <tspan
         sodipodi:role="line"
         id="tspan1013"
         x="186.71005"
         y="119.43127">type = 'response'</tspan>
    </text>
    <text
       style="font-variant:normal;font-weight:300;font-stretch:normal;font-size:4.93888855px;font-family:'Roboto Light';-inkscape-font-specification:Roboto-Light;writing-mode:lr-tb;fill:#706e6e;fill-opacity:1;fill-rule:nonzero;stroke:none;stroke-width:0.35277778"
       id="text284"
       x="186.71005"
       y="125.42708">
      <tspan
         x="186.71005 189.45114 190.55745 192.90047 195.45387 197.95294 199.15309 200.73848 203.44994 206.00334 207.20349 209.94951 211.51315 214.1604 217.88432 220.38341 221.58356 223.21832 224.83235 227.59813 231.97398 233.17413 235.82138"
         y="125.42708"
         sodipodi:role="line"
         id="tspan276"
         style="stroke-width:0.35277778">gives the draws from a</tspan>
      <tspan
         x="186.71005 188.27519 190.92244 193.6339 196.37991 199.14569 203.52155 204.72169 207.45784 208.56415 211.2756 214.04138 218.41724 219.52354 222.17079 223.2771"
         y="131.4229"
         sodipodi:role="line"
         id="tspan278"
         style="stroke-width:0.35277778">random binomial</tspan>
      <tspan
         x="186.71005 189.45609 190.56239 193.06148 194.64685 196.30632 197.41263 200.14877 202.86023 204.4456 205.55193 208.3177 211.02914 212.22929 215.95322 217.05952 218.64491 221.35637 222.55652 225.30254 226.87953 229.52676 233.25069 235.74977"
         y="137.4187"
         sodipodi:role="line"
         id="tspan280"
         style="stroke-width:0.35277778">distribution with draws</tspan>
      <tspan
         x="186.71005 188.34483 189.95837 192.72415 197.10001 198.30016 199.88553 202.59698 205.15039 206.35054 209.08669 211.85246 214.35153 215.93692 218.49033 220.1498 221.2561 224.02188 225.68135"
         y="143.41451"
         sodipodi:role="line"
         id="tspan282"
         style="stroke-width:0.35277778">from the posterior</tspan>
    </text>
    <text
       style="font-variant:normal;font-weight:300;font-stretch:normal;font-size:4.93888855px;font-family:'Roboto Light';-inkscape-font-specification:Roboto-Light;writing-mode:lr-tb;fill:#706e6e;fill-opacity:1;fill-rule:nonzero;stroke:none;stroke-width:0.35277778"
       id="text288"
       x="186.71005"
       y="149.41032">
      <tspan
         x="186.71005 189.45609 190.56239 193.06148 194.64685 196.30632 197.41263 200.14877 202.86023 204.4456 205.55193 208.3177 211.02914 212.22929 214.99507 216.62985 217.83 221.94904"
         y="149.41032"
         sodipodi:role="line"
         id="tspan286"
         style="stroke-width:0.35277778">distribution of π</tspan>
    </text>
    <g
       id="g294"
       transform="matrix(0.35277777,0,0,-0.35277777,-48.490475,196.85692)">
      <g
         id="g296"
         clip-path="url(#clipPath300)">
        <g
           id="g302">
          <g
             id="g304" />
          <g
             id="g316">
            <g
               clip-path="url(#clipPath308)"
               id="g314"
               style="opacity:0">
              <g
                 transform="translate(510.5161,169.2631)"
                 id="g312">
                <path
                   d="M 0,0 C 0,0 0,0 0,0 0,0 0,0 0,0 0,0 0,0 0,0 0,0 0,0 0,0 0,0 0,0 0,0 0,0 0,0 0,0 0,0 0,0 0,0 0,0 0,0 0,0 0,0 0,0 0,0 0,0 0,0 0,0 0,0 0,0 0,0 0,0 0,0 0,0 0,0 0,0 0,0 0,0 0,0 0,0 0,0 0,0 0,0 0,0 0,0 0,0 0,0 0,0 0,0 0,0 0,0 0,0 V 0 C 0,0 0,0 0,0 0,0 0,0 0,0 0,0 0,0 0,0 0,0 0,0 0,0 0,0 0,0 0,0 0,0 0,0 0,0 0,0 0,0 0,0 0,0 0,0 0,0 0,0 0,0 0,0 0,0 0,0 0,0 0,0 0,0 0,0 0,0 0,0 0,0 0,0 0,0 0,0 0,0 0,0 0,0 V 0 C 0,0 0,0 0,0 0,0 0,0 0,0 0,0 0,0 0,0 0,0 0,0 0,0 0,0 0,0 0,0 0,0 0,0 0,0 0,0 0,0 0,0 V 0 C 0,0 0,0 0,0 0,0 0,0 0,0 0,0 0,0 0,0 0,0 0,0 0,0 0,0 0,0 0,0 0,0 0,0 0,0 0,0 0,0 0,0 0,0 0,0 0,0 0,0 0,0 0,0 0,0 0,0 0,0 0,0 0,0 0,0 0,0 0,0 0,0 0,0 0,0 0,0 0,0 0,0 0,0 0,0 0,0 0,0 0,0 0,0 0,0 0,0 0,0 0,0 0,0 0,0 0,0 0,0 0,0 0,0 0,0 0,0 0,0 0,0 0,0 0,0 0,0 0,0 0,0 V 0 C 0,0 0,0 0,0 0,0 0,0 0,0 0,0 0,0 0,0 0,0 0,0 0,0 0,0 0,0 0,0 0,0 0,0 0,0 V 0 C 0,0 0,0 0,0 0,0 0,0 0,0 0,0 0,0 0,0 0,0 0,0 0,0 0,0 0,0 0,0 0,0 0,0 0,0 0,0 0,0 0,0 0,0 0,0 0,0 0,0 0,0 0,0 0,0 0,0 0,0 V 0 C 0,0 0,0 0,0 0,0 0,0 0,0 0,0 0,0 0,0 V 0 C 0,0 0,0 0,0 0,0 0,0 0,0 0,0 0,0 0,0 0,0 0,0 0,0 0,0 0,0 0,0 0,0 0,0 0,0 0,0 0,0 0,0 0,0 0,0 0,0 0,0 0,0 0,0 0,0 0,0 0,0 0,0 0,0 0,0 0,0 0,0 0,0 0,0 0,0 0,0 0,0 0,0 0,0 0,0 0,0 0,0 0,0 0,0 0,0 0,0 0,0 0,0 V 0 C 0,0 0,0 0,0 0,0 0,0 0,0 0,0 0,0 0,0 0,0 0,0 0,0 0,0 0,0 0,0 0,0 0,0 0,0 0,0 0,0 0,0 0,0 0,0 0,0 0,0 0,0 0,0 0,0 0,0 0,0 0,0 0,0 0,0 0,0 0,0 0,0 0,0 0,0 0,0 0,0 0,0 0,0 0,0 0,0 0,0 0,0 0,0 0,0 0,0 0,0 0,0 0,0 0,0 0,0 0,0 0,0 0,0 V 0 C 0,0 0,0 0,0 0,0 0,0 0,0 0,0 0,0 0,0 0,0 0,0 0,0 0,0 0,0 0,0 0,0 0,0 0,0 0,0 0,0 0,0 0,0 0,0 0,0 0,0 0,0 0,0 0,0 0,0 0,0 0,0 0,0 0,0 0,0 0,0 0,0 V 0 C 0,0 0,0 0,0 0,0 0,0 0,0 0,0 0,0 0,0 0,0 0,0 0,0 0,0 0,0 0,0 0,0 0,0 0,0 0,0 0,0 0,0 0,0 0,0 0,0 0,0 0,0 0,0 0,0 0,0 0,0 0,0 0,0 0,0 0,0 0,0 0,0 0,0 0,0 0,0 0,0 0,0 0,0 0,0 0,0 0,0 0,0 0,0 0,0 0,0 0,0 0,0 0,0 0,0 0,0 0,0 0,0 0,0 0,0 0,0 0,0 0,0 0,0 0,0 0,0 0,0 0,0 Z"
                   style="fill:none;stroke:#000001;stroke-width:0.75;stroke-linecap:butt;stroke-linejoin:miter;stroke-miterlimit:10;stroke-dasharray:none;stroke-opacity:1"
                   id="path310"
                   inkscape:connector-curvature="0" />
              </g>
            </g>
          </g>
        </g>
      </g>
    </g>
    <g
       id="g318"
       transform="matrix(0.35277777,0,0,-0.35277777,-48.490475,196.85692)">
      <g
         id="g320"
         clip-path="url(#clipPath324)">
        <g
           id="g326">
          <g
             id="g328" />
          <g
             id="g336">
            <g
               clip-path="url(#clipPath332)"
               id="g334"
               style="opacity:0" />
          </g>
        </g>
      </g>
    </g>
    <path
       d="M 61.829131,110.38686 H 91.085344 V 89.823086 H 61.829131 Z"
       style="fill:#ffffff;fill-opacity:1;fill-rule:nonzero;stroke:none;stroke-width:0.35277778"
       id="path338"
       inkscape:connector-curvature="0" />
    <g
       id="g340"
       transform="matrix(0.35277777,0,0,-0.35277777,-48.490475,196.85692)">
      <g
         id="g342"
         clip-path="url(#clipPath346)">
        <g
           id="g348"
           transform="translate(333.0194,270.4728)">
          <path
             d="m 0,0 c 0,-0.778 -0.043,-1.014 -1.705,-1.014 h -0.518 v -0.67 H 10.23 l 0.906,5.568 H 10.597 C 10.057,0.561 9.561,-1.014 5.849,-1.014 H 2.978 c -1.014,0 -1.057,0.15 -1.057,0.863 v 5.762 h 1.942 c 2.094,0 2.331,-0.691 2.331,-2.525 h 0.539 v 5.72 H 6.194 C 6.194,6.949 5.957,6.28 3.863,6.28 H 1.921 v 5.18 c 0,0.712 0.043,0.863 1.057,0.863 h 2.784 c 3.303,0 3.885,-1.187 4.231,-4.187 h 0.539 L 9.928,12.993 H -2.223 v -0.67 h 0.518 C -0.043,12.323 0,12.085 0,11.309 Z"
             style="fill:#231f20;fill-opacity:1;fill-rule:nonzero;stroke:none"
             id="path350"
             inkscape:connector-curvature="0" />
        </g>
        <g
           id="g352"
           transform="translate(351.8909,263.6098)">
          <path
             d="m 0,0 c 0,0.065 0,0.108 -0.367,0.474 -2.698,2.719 -3.388,6.799 -3.388,10.101 0,3.756 0.82,7.511 3.474,10.208 C 0,21.042 0,21.086 0,21.15 c 0,0.152 -0.086,0.216 -0.216,0.216 -0.216,0 -2.158,-1.467 -3.431,-4.208 -1.101,-2.375 -1.36,-4.77 -1.36,-6.583 0,-1.684 0.237,-4.295 1.425,-6.734 1.295,-2.654 3.15,-4.057 3.366,-4.057 C -0.086,-0.216 0,-0.151 0,0"
             style="fill:#231f20;fill-opacity:1;fill-rule:nonzero;stroke:none"
             id="path354"
             inkscape:connector-curvature="0" />
        </g>
        <g
           id="g356"
           transform="translate(363.5896,277.0118)">
          <path
             d="M 0,0 C 0.086,0.302 0.086,0.346 0.086,0.497 0.086,0.885 -0.216,1.08 -0.54,1.08 -0.756,1.08 -1.101,0.95 -1.295,0.626 -1.338,0.518 -1.511,-0.151 -1.597,-0.539 -1.748,-1.1 -1.9,-1.684 -2.029,-2.266 L -3,-6.15 c -0.086,-0.324 -1.014,-1.835 -2.439,-1.835 -1.101,0 -1.338,0.949 -1.338,1.748 0,0.993 0.367,2.331 1.101,4.23 0.344,0.885 0.431,1.122 0.431,1.554 0,0.971 -0.69,1.769 -1.769,1.769 -2.051,0 -2.849,-3.128 -2.849,-3.323 0,-0.216 0.215,-0.216 0.258,-0.216 0.216,0 0.238,0.044 0.346,0.389 0.583,2.028 1.446,2.676 2.18,2.676 0.173,0 0.539,0 0.539,-0.691 0,-0.539 -0.216,-1.1 -0.366,-1.511 -0.864,-2.287 -1.253,-3.517 -1.253,-4.532 0,-1.92 1.36,-2.568 2.634,-2.568 0.841,0 1.575,0.367 2.179,0.971 -0.28,-1.122 -0.539,-2.18 -1.402,-3.323 -0.562,-0.735 -1.382,-1.36 -2.374,-1.36 -0.302,0 -1.273,0.065 -1.641,0.906 0.346,0 0.626,0 0.928,0.259 0.216,0.195 0.432,0.475 0.432,0.885 0,0.669 -0.583,0.756 -0.799,0.756 -0.496,0 -1.208,-0.346 -1.208,-1.403 0,-1.079 0.95,-1.878 2.288,-1.878 2.222,0 4.446,1.964 5.05,4.403 z"
             style="fill:#231f20;fill-opacity:1;fill-rule:nonzero;stroke:none"
             id="path358"
             inkscape:connector-curvature="0" />
        </g>
        <g
           id="g360"
           transform="translate(368.5567,274.9573)">
          <path
             d="m 0,0 c 0,0.241 -0.18,0.573 -0.602,0.573 -0.407,0 -0.844,-0.392 -0.844,-0.828 0,-0.257 0.196,-0.573 0.603,-0.573 C -0.407,-0.828 0,-0.407 0,0 m -3.072,-7.651 c -0.06,-0.196 -0.136,-0.376 -0.136,-0.633 0,-0.708 0.602,-1.279 1.431,-1.279 1.506,0 2.169,2.077 2.169,2.304 0,0.195 -0.196,0.195 -0.241,0.195 -0.211,0 -0.226,-0.09 -0.286,-0.255 -0.347,-1.206 -1.01,-1.823 -1.597,-1.823 -0.301,0 -0.377,0.195 -0.377,0.527 0,0.346 0.106,0.633 0.241,0.964 0.152,0.407 0.317,0.813 0.482,1.205 0.136,0.361 0.678,1.732 0.738,1.913 0.046,0.151 0.091,0.331 0.091,0.481 0,0.708 -0.603,1.281 -1.431,1.281 -1.491,0 -2.184,-2.049 -2.184,-2.304 0,-0.196 0.21,-0.196 0.256,-0.196 0.211,0 0.226,0.075 0.271,0.241 0.391,1.295 1.054,1.837 1.612,1.837 0.24,0 0.377,-0.121 0.377,-0.527 0,-0.347 -0.091,-0.572 -0.468,-1.506 z"
             style="fill:#231f20;fill-opacity:1;fill-rule:nonzero;stroke:none"
             id="path362"
             inkscape:connector-curvature="0" />
        </g>
        <g
           id="g364"
           transform="translate(377.126,274.1845)">
          <path
             d="m 0,0 c 0,1.684 -0.238,4.295 -1.425,6.734 -1.294,2.655 -3.151,4.058 -3.367,4.058 -0.129,0 -0.216,-0.087 -0.216,-0.216 0,-0.065 0,-0.108 0.411,-0.497 C -2.483,7.943 -1.252,4.511 -1.252,0 c 0,-3.69 -0.799,-7.489 -3.475,-10.208 -0.281,-0.259 -0.281,-0.302 -0.281,-0.367 0,-0.129 0.087,-0.216 0.216,-0.216 0.216,0 2.159,1.468 3.432,4.209 C -0.26,-4.208 0,-1.812 0,0"
             style="fill:#231f20;fill-opacity:1;fill-rule:nonzero;stroke:none"
             id="path366"
             inkscape:connector-curvature="0" />
        </g>
      </g>
    </g>
    <g
       id="g368"
       transform="matrix(0.35277777,0,0,-0.35277777,74.458893,105.37833)">
      <path
         d="M 0,0 V -1"
         style="fill:none;stroke:#231f20;stroke-width:1;stroke-linecap:butt;stroke-linejoin:miter;stroke-miterlimit:10;stroke-dasharray:none;stroke-opacity:1"
         id="path370"
         inkscape:connector-curvature="0" />
    </g>
    <g
       id="g372"
       transform="matrix(0.35277777,0,0,-0.35277777,74.458893,106.41207)">
      <path
         d="M 0,0 V -22.198"
         style="fill:none;stroke:#231f20;stroke-width:1;stroke-linecap:butt;stroke-linejoin:miter;stroke-miterlimit:10;stroke-dasharray:1.93, 1.93;stroke-dashoffset:0;stroke-opacity:1"
         id="path374"
         inkscape:connector-curvature="0" />
    </g>
    <g
       id="g376"
       transform="matrix(0.35277777,0,0,-0.35277777,74.458893,114.58364)">
      <path
         d="M 0,0 V -1"
         style="fill:none;stroke:#231f20;stroke-width:1;stroke-linecap:butt;stroke-linejoin:miter;stroke-miterlimit:10;stroke-dasharray:none;stroke-opacity:1"
         id="path378"
         inkscape:connector-curvature="0" />
    </g>
    <g
       id="g388"
       transform="matrix(0.35277777,0,0,-0.35277777,-11.557641,113.21828)">
      <path
         d="M 0,0 C 0,0 64.803,36.179 209.654,37.152"
         style="fill:none;stroke:#cf3a36;stroke-width:1;stroke-linecap:butt;stroke-linejoin:miter;stroke-miterlimit:10;stroke-dasharray:none;stroke-opacity:1"
         id="path390"
         inkscape:connector-curvature="0" />
    </g>
    <g
       id="g392"
       transform="matrix(0.35277777,0,0,-0.35277777,61.43335,101.459)">
      <path
         d="M 0,0 1.516,3.727 -0.115,7.405 8.72,3.839 Z"
         style="fill:#cf3a36;fill-opacity:1;fill-rule:nonzero;stroke:none"
         id="path394"
         inkscape:connector-curvature="0" />
    </g>
    <g
       id="g396"
       transform="matrix(0.35277777,0,0,-0.35277777,22.68364,163.09235)">
      <path
         d="M 0,0 C 0,0 116.197,12.681 130.492,41.107"
         style="fill:none;stroke:#cf3a36;stroke-width:1;stroke-linecap:butt;stroke-linejoin:miter;stroke-miterlimit:10;stroke-dasharray:none;stroke-opacity:1"
         id="path398"
         inkscape:connector-curvature="0" />
    </g>
    <g
       id="g400"
       transform="matrix(0.35277777,0,0,-0.35277777,69.624073,149.88428)">
      <path
         d="M 0,0 -3.124,2.536 -7.118,2.048 -1.132,9.46 Z"
         style="fill:#cf3a36;fill-opacity:1;fill-rule:nonzero;stroke:none"
         id="path402"
         inkscape:connector-curvature="0" />
    </g>
    <g
       id="g408"
       transform="matrix(0.35277777,0,0,-0.35277777,215.14067,113.21828)">
      <path
         d="M 0,0 C 0,8.291 -180.494,41.404 -212.633,9.79"
         style="fill:none;stroke:#663171;stroke-width:1;stroke-linecap:butt;stroke-linejoin:miter;stroke-miterlimit:10;stroke-dasharray:none;stroke-opacity:1"
         id="path410"
         inkscape:connector-curvature="0" />
    </g>
    <g
       id="g412"
       transform="matrix(0.35277777,0,0,-0.35277777,139.74352,108.2196)">
      <path
         d="M 0,0 1.983,-3.501 5.88,-4.503 -2.397,-9.221 Z"
         style="fill:#663171;fill-opacity:1;fill-rule:nonzero;stroke:none"
         id="path414"
         inkscape:connector-curvature="0" />
    </g>
    <g
       id="g416"
       transform="matrix(0.35277777,0,0,-0.35277777,92.237516,163.8462)">
      <path
         d="M 0,0 C 0,0 -102.573,18.932 -102.573,46.338"
         style="fill:none;stroke:#ffffff;stroke-width:5;stroke-linecap:butt;stroke-linejoin:miter;stroke-miterlimit:10;stroke-dasharray:none;stroke-opacity:1"
         id="path418"
         inkscape:connector-curvature="0" />
    </g>
    <g
       id="g420"
       transform="matrix(0.35277777,0,0,-0.35277777,92.237516,163.8462)">
      <path
         d="M 0,0 C 0,0 -88.353,16.307 -101.058,40.562"
         style="fill:none;stroke:#ea7428;stroke-width:1;stroke-linecap:butt;stroke-linejoin:miter;stroke-miterlimit:10;stroke-dasharray:none;stroke-opacity:1"
         id="path422"
         inkscape:connector-curvature="0" />
    </g>
    <g
       id="g424"
       transform="matrix(0.35277777,0,0,-0.35277777,58.195943,150.0878)">
      <path
         d="m 0,0 -3.999,0.439 -3.093,-2.575 1.015,9.474 z"
         style="fill:#ea7428;fill-opacity:1;fill-rule:nonzero;stroke:none"
         id="path426"
         inkscape:connector-curvature="0" />
    </g>
  </g>
</svg>
