<?xml version="1.0" encoding="UTF-8"?>
<svg xmlns="http://www.w3.org/2000/svg" xmlns:xlink="http://www.w3.org/1999/xlink" width="697" height="367" viewBox="0 0 697 367">
<defs>
<g>
<g id="glyph-0-0">
<path d="M 0.648438 -5.890625 C 0.648438 -7.246094 0.855469 -8.417969 1.265625 -9.398438 C 1.675781 -10.382812 2.21875 -11.113281 2.898438 -11.59375 C 3.425781 -11.972656 3.972656 -12.164062 4.535156 -12.164062 C 5.449219 -12.164062 6.269531 -11.699219 6.996094 -10.765625 C 7.902344 -9.613281 8.359375 -8.046875 8.359375 -6.074219 C 8.359375 -4.691406 8.160156 -3.515625 7.761719 -2.546875 C 7.363281 -1.582031 6.855469 -0.878906 6.234375 -0.445312 C 5.617188 -0.0078125 5.019531 0.210938 4.445312 0.210938 C 3.308594 0.210938 2.363281 -0.460938 1.609375 -1.800781 C 0.96875 -2.933594 0.648438 -4.292969 0.648438 -5.890625 M 2.375 -5.667969 C 2.375 -4.027344 2.574219 -2.6875 2.980469 -1.652344 C 3.3125 -0.777344 3.8125 -0.34375 4.472656 -0.34375 C 4.789062 -0.34375 5.117188 -0.484375 5.457031 -0.769531 C 5.796875 -1.054688 6.054688 -1.53125 6.230469 -2.195312 C 6.5 -3.203125 6.636719 -4.625 6.636719 -6.460938 C 6.636719 -7.820312 6.496094 -8.953125 6.214844 -9.859375 C 6.003906 -10.535156 5.730469 -11.011719 5.398438 -11.292969 C 5.15625 -11.488281 4.867188 -11.585938 4.527344 -11.585938 C 4.128906 -11.585938 3.773438 -11.40625 3.460938 -11.046875 C 3.039062 -10.5625 2.753906 -9.796875 2.601562 -8.753906 C 2.449219 -7.710938 2.375 -6.683594 2.375 -5.667969 Z M 2.375 -5.667969 "/>
</g>
<g id="glyph-0-1">
<path d="M 2.109375 -10.75 L 5.007812 -12.164062 L 5.300781 -12.164062 L 5.300781 -2.101562 C 5.300781 -1.433594 5.328125 -1.015625 5.382812 -0.851562 C 5.4375 -0.6875 5.554688 -0.5625 5.730469 -0.476562 C 5.90625 -0.386719 6.261719 -0.335938 6.804688 -0.324219 L 6.804688 0 L 2.320312 0 L 2.320312 -0.324219 C 2.882812 -0.335938 3.246094 -0.386719 3.410156 -0.46875 C 3.574219 -0.554688 3.6875 -0.667969 3.753906 -0.8125 C 3.816406 -0.957031 3.847656 -1.386719 3.851562 -2.101562 L 3.851562 -8.535156 C 3.847656 -9.402344 3.820312 -9.957031 3.761719 -10.203125 C 3.71875 -10.390625 3.644531 -10.53125 3.539062 -10.617188 C 3.429688 -10.703125 3.296875 -10.75 3.148438 -10.75 C 2.929688 -10.75 2.628906 -10.65625 2.242188 -10.476562 Z M 2.109375 -10.75 "/>
</g>
<g id="glyph-0-2">
<path d="M 8.253906 -2.292969 L 7.417969 0 L 0.386719 0 L 0.386719 -0.324219 C 2.453125 -2.210938 3.910156 -3.753906 4.753906 -4.949219 C 5.597656 -6.144531 6.019531 -7.234375 6.019531 -8.226562 C 6.019531 -8.980469 5.789062 -9.601562 5.328125 -10.089844 C 4.863281 -10.574219 4.308594 -10.820312 3.664062 -10.820312 C 3.078125 -10.820312 2.554688 -10.648438 2.085938 -10.304688 C 1.621094 -9.960938 1.277344 -9.460938 1.054688 -8.796875 L 0.730469 -8.796875 C 0.875 -9.882812 1.253906 -10.714844 1.859375 -11.292969 C 2.464844 -11.875 3.222656 -12.164062 4.132812 -12.164062 C 5.097656 -12.164062 5.90625 -11.851562 6.550781 -11.234375 C 7.199219 -10.609375 7.523438 -9.878906 7.523438 -9.035156 C 7.523438 -8.429688 7.382812 -7.828125 7.101562 -7.226562 C 6.667969 -6.273438 5.964844 -5.269531 4.992188 -4.210938 C 3.53125 -2.617188 2.621094 -1.65625 2.257812 -1.328125 L 5.371094 -1.328125 C 6.003906 -1.328125 6.445312 -1.351562 6.703125 -1.398438 C 6.957031 -1.445312 7.1875 -1.539062 7.390625 -1.683594 C 7.597656 -1.828125 7.773438 -2.03125 7.929688 -2.292969 Z M 8.253906 -2.292969 "/>
</g>
<g id="glyph-0-3">
<path d="M 0.914062 -9.648438 C 1.253906 -10.453125 1.683594 -11.074219 2.203125 -11.507812 C 2.71875 -11.945312 3.367188 -12.164062 4.140625 -12.164062 C 5.09375 -12.164062 5.828125 -11.851562 6.335938 -11.234375 C 6.722656 -10.769531 6.917969 -10.273438 6.917969 -9.746094 C 6.917969 -8.878906 6.371094 -7.984375 5.28125 -7.058594 C 6.015625 -6.769531 6.566406 -6.359375 6.945312 -5.828125 C 7.316406 -5.292969 7.507812 -4.667969 7.507812 -3.945312 C 7.507812 -2.914062 7.175781 -2.019531 6.523438 -1.265625 C 5.664062 -0.28125 4.425781 0.210938 2.804688 0.210938 C 2 0.210938 1.453125 0.109375 1.164062 -0.0859375 C 0.875 -0.285156 0.730469 -0.5 0.730469 -0.730469 C 0.730469 -0.898438 0.796875 -1.046875 0.9375 -1.179688 C 1.074219 -1.304688 1.238281 -1.371094 1.433594 -1.371094 C 1.578125 -1.371094 1.726562 -1.347656 1.882812 -1.300781 C 1.980469 -1.269531 2.207031 -1.164062 2.558594 -0.980469 C 2.910156 -0.796875 3.152344 -0.6875 3.289062 -0.648438 C 3.503906 -0.585938 3.734375 -0.554688 3.980469 -0.554688 C 4.578125 -0.554688 5.097656 -0.785156 5.542969 -1.25 C 5.984375 -1.710938 6.203125 -2.257812 6.203125 -2.890625 C 6.203125 -3.355469 6.101562 -3.804688 5.898438 -4.246094 C 5.746094 -4.574219 5.578125 -4.820312 5.398438 -4.992188 C 5.144531 -5.226562 4.796875 -5.4375 4.359375 -5.628906 C 3.921875 -5.820312 3.472656 -5.914062 3.015625 -5.914062 L 2.734375 -5.914062 L 2.734375 -6.179688 C 3.195312 -6.238281 3.660156 -6.402344 4.125 -6.679688 C 4.59375 -6.953125 4.929688 -7.285156 5.140625 -7.671875 C 5.351562 -8.058594 5.457031 -8.484375 5.457031 -8.945312 C 5.457031 -9.550781 5.269531 -10.039062 4.890625 -10.410156 C 4.511719 -10.78125 4.042969 -10.96875 3.480469 -10.96875 C 2.570312 -10.96875 1.8125 -10.480469 1.203125 -9.507812 Z M 0.914062 -9.648438 "/>
</g>
<g id="glyph-0-4">
<path d="M 8.375 -4.394531 L 8.375 -3.148438 L 6.777344 -3.148438 L 6.777344 0 L 5.328125 0 L 5.328125 -3.148438 L 0.28125 -3.148438 L 0.28125 -4.273438 L 5.808594 -12.164062 L 6.777344 -12.164062 L 6.777344 -4.394531 L 8.375 -4.394531 M 5.328125 -4.394531 L 5.328125 -10.308594 L 1.140625 -4.394531 Z M 5.328125 -4.394531 "/>
</g>
<g id="glyph-0-5">
<path d="M 2.25 -1.703125 C 2.523438 -1.703125 2.757812 -1.609375 2.945312 -1.417969 C 3.132812 -1.230469 3.226562 -1 3.226562 -0.730469 C 3.226562 -0.460938 3.128906 -0.230469 2.941406 -0.0390625 C 2.75 0.152344 2.519531 0.246094 2.25 0.246094 C 1.980469 0.246094 1.75 0.152344 1.558594 -0.0390625 C 1.371094 -0.230469 1.273438 -0.460938 1.273438 -0.730469 C 1.273438 -1.003906 1.371094 -1.234375 1.558594 -1.421875 C 1.75 -1.609375 1.980469 -1.703125 2.25 -1.703125 Z M 2.25 -1.703125 "/>
</g>
<g id="glyph-0-6">
<path d="M 8.070312 -12.164062 L 8.070312 -11.839844 C 7.292969 -11.761719 6.664062 -11.609375 6.175781 -11.378906 C 5.683594 -11.144531 5.203125 -10.792969 4.722656 -10.320312 C 4.246094 -9.84375 3.851562 -9.316406 3.539062 -8.730469 C 3.222656 -8.148438 2.960938 -7.457031 2.75 -6.652344 C 3.59375 -7.234375 4.441406 -7.523438 5.289062 -7.523438 C 6.105469 -7.523438 6.8125 -7.195312 7.410156 -6.539062 C 8.007812 -5.882812 8.304688 -5.039062 8.304688 -4.007812 C 8.304688 -3.011719 8.003906 -2.101562 7.398438 -1.28125 C 6.671875 -0.289062 5.710938 0.210938 4.515625 0.210938 C 3.703125 0.210938 3.011719 -0.0585938 2.445312 -0.597656 C 1.332031 -1.644531 0.773438 -3.007812 0.773438 -4.675781 C 0.773438 -5.742188 0.988281 -6.753906 1.414062 -7.71875 C 1.84375 -8.675781 2.453125 -9.53125 3.246094 -10.273438 C 4.042969 -11.019531 4.800781 -11.519531 5.527344 -11.777344 C 6.253906 -12.035156 6.929688 -12.164062 7.558594 -12.164062 L 8.070312 -12.164062 M 2.601562 -6.011719 C 2.496094 -5.21875 2.445312 -4.582031 2.445312 -4.09375 C 2.445312 -3.53125 2.546875 -2.921875 2.753906 -2.261719 C 2.964844 -1.605469 3.273438 -1.082031 3.683594 -0.695312 C 3.980469 -0.417969 4.34375 -0.28125 4.773438 -0.28125 C 5.28125 -0.28125 5.738281 -0.519531 6.140625 -1 C 6.539062 -1.480469 6.742188 -2.167969 6.742188 -3.058594 C 6.742188 -4.058594 6.542969 -4.925781 6.144531 -5.660156 C 5.746094 -6.390625 5.179688 -6.757812 4.445312 -6.757812 C 4.222656 -6.757812 3.984375 -6.710938 3.730469 -6.617188 C 3.476562 -6.523438 3.097656 -6.320312 2.601562 -6.011719 Z M 2.601562 -6.011719 "/>
</g>
<g id="glyph-0-7">
<path d="M 3.453125 -6.003906 C 2.511719 -6.777344 1.902344 -7.398438 1.628906 -7.867188 C 1.359375 -8.335938 1.222656 -8.820312 1.222656 -9.324219 C 1.222656 -10.097656 1.519531 -10.765625 2.117188 -11.324219 C 2.714844 -11.882812 3.507812 -12.164062 4.5 -12.164062 C 5.460938 -12.164062 6.234375 -11.902344 6.820312 -11.382812 C 7.40625 -10.859375 7.699219 -10.265625 7.699219 -9.597656 C 7.699219 -9.152344 7.539062 -8.699219 7.226562 -8.234375 C 6.90625 -7.773438 6.25 -7.226562 5.246094 -6.601562 C 6.277344 -5.804688 6.960938 -5.175781 7.296875 -4.71875 C 7.738281 -4.121094 7.960938 -3.492188 7.960938 -2.828125 C 7.960938 -1.992188 7.644531 -1.277344 7.003906 -0.679688 C 6.367188 -0.0859375 5.527344 0.210938 4.492188 0.210938 C 3.359375 0.210938 2.476562 -0.144531 1.84375 -0.851562 C 1.339844 -1.421875 1.089844 -2.042969 1.089844 -2.714844 C 1.089844 -3.242188 1.265625 -3.765625 1.621094 -4.285156 C 1.976562 -4.804688 2.585938 -5.375 3.453125 -6.003906 M 4.835938 -6.945312 C 5.539062 -7.578125 5.980469 -8.074219 6.171875 -8.441406 C 6.355469 -8.808594 6.453125 -9.222656 6.453125 -9.6875 C 6.453125 -10.300781 6.277344 -10.78125 5.933594 -11.132812 C 5.585938 -11.480469 5.117188 -11.65625 4.515625 -11.65625 C 3.921875 -11.65625 3.433594 -11.480469 3.058594 -11.136719 C 2.683594 -10.789062 2.496094 -10.386719 2.496094 -9.921875 C 2.496094 -9.617188 2.574219 -9.3125 2.730469 -9.007812 C 2.882812 -8.703125 3.105469 -8.414062 3.390625 -8.140625 L 4.835938 -6.945312 M 3.867188 -5.667969 C 3.378906 -5.257812 3.019531 -4.8125 2.785156 -4.328125 C 2.550781 -3.84375 2.433594 -3.320312 2.433594 -2.757812 C 2.433594 -2.003906 2.640625 -1.398438 3.054688 -0.945312 C 3.46875 -0.492188 3.992188 -0.261719 4.632812 -0.265625 C 5.265625 -0.261719 5.769531 -0.441406 6.152344 -0.800781 C 6.53125 -1.15625 6.722656 -1.589844 6.722656 -2.101562 C 6.722656 -2.523438 6.613281 -2.898438 6.390625 -3.234375 C 5.972656 -3.855469 5.132812 -4.667969 3.867188 -5.667969 Z M 3.867188 -5.667969 "/>
</g>
<g id="glyph-1-0">
<path d="M 13.757812 -4.394531 L 14.144531 -4.3125 L 12.785156 0 L 0.480469 0 L 0.480469 -0.433594 L 1.078125 -0.433594 C 1.75 -0.433594 2.230469 -0.652344 2.519531 -1.089844 C 2.683594 -1.339844 2.765625 -1.917969 2.765625 -2.824219 L 2.765625 -13.078125 C 2.765625 -14.070312 2.65625 -14.691406 2.4375 -14.941406 C 2.132812 -15.285156 1.679688 -15.457031 1.078125 -15.457031 L 0.480469 -15.457031 L 0.480469 -15.890625 L 7.675781 -15.890625 L 7.675781 -15.457031 C 6.832031 -15.464844 6.242188 -15.386719 5.898438 -15.222656 C 5.5625 -15.058594 5.328125 -14.851562 5.203125 -14.601562 C 5.078125 -14.351562 5.015625 -13.753906 5.015625 -12.808594 L 5.015625 -2.824219 C 5.015625 -2.175781 5.078125 -1.730469 5.203125 -1.488281 C 5.296875 -1.324219 5.441406 -1.203125 5.636719 -1.125 C 5.832031 -1.046875 6.441406 -1.007812 7.464844 -1.007812 L 8.625 -1.007812 C 9.84375 -1.007812 10.699219 -1.097656 11.191406 -1.277344 C 11.683594 -1.457031 12.132812 -1.773438 12.539062 -2.234375 C 12.945312 -2.6875 13.351562 -3.410156 13.757812 -4.394531 Z M 13.757812 -4.394531 "/>
</g>
<g id="glyph-1-1">
<path d="M 6.832031 -1.546875 C 5.730469 -0.695312 5.039062 -0.203125 4.757812 -0.0703125 C 4.335938 0.125 3.886719 0.222656 3.410156 0.222656 C 2.667969 0.222656 2.054688 -0.03125 1.578125 -0.539062 C 1.09375 -1.046875 0.855469 -1.714844 0.855469 -2.542969 C 0.855469 -3.066406 0.972656 -3.519531 1.207031 -3.902344 C 1.527344 -4.433594 2.082031 -4.933594 2.875 -5.402344 C 3.667969 -5.871094 4.988281 -6.441406 6.832031 -7.113281 L 6.832031 -7.535156 C 6.832031 -8.605469 6.664062 -9.339844 6.320312 -9.738281 C 5.984375 -10.136719 5.488281 -10.335938 4.839844 -10.335938 C 4.347656 -10.335938 3.957031 -10.203125 3.667969 -9.9375 C 3.371094 -9.671875 3.222656 -9.367188 3.222656 -9.023438 L 3.246094 -8.34375 C 3.246094 -7.984375 3.152344 -7.707031 2.96875 -7.511719 C 2.785156 -7.316406 2.546875 -7.21875 2.25 -7.21875 C 1.960938 -7.21875 1.722656 -7.320312 1.539062 -7.523438 C 1.355469 -7.726562 1.265625 -8.003906 1.265625 -8.355469 C 1.265625 -9.027344 1.609375 -9.644531 2.296875 -10.207031 C 2.984375 -10.769531 3.949219 -11.050781 5.191406 -11.050781 C 6.144531 -11.050781 6.925781 -10.890625 7.535156 -10.570312 C 7.996094 -10.328125 8.335938 -9.949219 8.554688 -9.433594 C 8.695312 -9.097656 8.765625 -8.410156 8.765625 -7.371094 L 8.765625 -3.726562 C 8.765625 -2.703125 8.785156 -2.074219 8.824219 -1.84375 C 8.863281 -1.613281 8.925781 -1.460938 9.015625 -1.382812 C 9.105469 -1.304688 9.210938 -1.265625 9.328125 -1.265625 C 9.453125 -1.265625 9.5625 -1.292969 9.65625 -1.347656 C 9.820312 -1.449219 10.136719 -1.734375 10.605469 -2.203125 L 10.605469 -1.546875 C 9.730469 -0.375 8.894531 0.210938 8.097656 0.210938 C 7.714844 0.210938 7.410156 0.078125 7.183594 -0.1875 C 6.957031 -0.453125 6.839844 -0.90625 6.832031 -1.546875 M 6.832031 -2.308594 L 6.832031 -6.398438 C 5.652344 -5.929688 4.890625 -5.597656 4.546875 -5.402344 C 3.929688 -5.058594 3.488281 -4.699219 3.222656 -4.324219 C 2.957031 -3.949219 2.824219 -3.539062 2.824219 -3.09375 C 2.824219 -2.53125 2.992188 -2.0625 3.328125 -1.695312 C 3.664062 -1.320312 4.050781 -1.136719 4.488281 -1.136719 C 5.082031 -1.136719 5.863281 -1.527344 6.832031 -2.308594 Z M 6.832031 -2.308594 "/>
</g>
<g id="glyph-1-2">
<path d="M 3.621094 -3.914062 C 2.964844 -4.234375 2.460938 -4.679688 2.109375 -5.257812 C 1.757812 -5.828125 1.582031 -6.464844 1.582031 -7.160156 C 1.582031 -8.222656 1.980469 -9.136719 2.78125 -9.902344 C 3.582031 -10.667969 4.609375 -11.050781 5.859375 -11.050781 C 6.882812 -11.050781 7.769531 -10.800781 8.519531 -10.300781 L 10.792969 -10.300781 C 11.128906 -10.300781 11.324219 -10.289062 11.378906 -10.273438 C 11.433594 -10.25 11.472656 -10.21875 11.496094 -10.171875 C 11.542969 -10.101562 11.566406 -9.976562 11.566406 -9.796875 C 11.566406 -9.59375 11.546875 -9.453125 11.507812 -9.375 C 11.484375 -9.335938 11.445312 -9.304688 11.382812 -9.28125 C 11.328125 -9.257812 11.128906 -9.246094 10.792969 -9.246094 L 9.398438 -9.246094 C 9.835938 -8.683594 10.054688 -7.964844 10.054688 -7.089844 C 10.054688 -6.089844 9.671875 -5.234375 8.90625 -4.523438 C 8.140625 -3.8125 7.113281 -3.457031 5.824219 -3.457031 C 5.292969 -3.457031 4.75 -3.535156 4.195312 -3.691406 C 3.851562 -3.394531 3.617188 -3.132812 3.5 -2.914062 C 3.375 -2.6875 3.316406 -2.5 3.316406 -2.34375 C 3.316406 -2.210938 3.382812 -2.082031 3.507812 -1.957031 C 3.640625 -1.832031 3.890625 -1.742188 4.265625 -1.6875 C 4.484375 -1.65625 5.03125 -1.628906 5.90625 -1.605469 C 7.515625 -1.566406 8.558594 -1.511719 9.035156 -1.441406 C 9.761719 -1.339844 10.339844 -1.070312 10.773438 -0.632812 C 11.207031 -0.195312 11.425781 0.34375 11.425781 0.984375 C 11.425781 1.867188 11.011719 2.695312 10.183594 3.46875 C 8.964844 4.609375 7.375 5.179688 5.414062 5.179688 C 3.90625 5.179688 2.632812 4.839844 1.59375 4.160156 C 1.007812 3.769531 0.714844 3.363281 0.714844 2.941406 C 0.714844 2.753906 0.757812 2.566406 0.84375 2.378906 C 0.976562 2.089844 1.25 1.6875 1.664062 1.171875 C 1.71875 1.101562 2.117188 0.679688 2.859375 -0.09375 C 2.453125 -0.335938 2.164062 -0.550781 2 -0.742188 C 1.828125 -0.933594 1.746094 -1.152344 1.746094 -1.394531 C 1.746094 -1.667969 1.859375 -1.988281 2.078125 -2.355469 C 2.304688 -2.722656 2.816406 -3.242188 3.621094 -3.914062 M 5.660156 -10.488281 C 5.082031 -10.488281 4.597656 -10.257812 4.207031 -9.796875 C 3.816406 -9.335938 3.621094 -8.628906 3.621094 -7.675781 C 3.621094 -6.441406 3.886719 -5.484375 4.417969 -4.804688 C 4.824219 -4.289062 5.339844 -4.03125 5.964844 -4.03125 C 6.558594 -4.03125 7.046875 -4.253906 7.429688 -4.699219 C 7.8125 -5.144531 8.003906 -5.84375 8.003906 -6.796875 C 8.003906 -8.039062 7.734375 -9.011719 7.195312 -9.714844 C 6.796875 -10.230469 6.285156 -10.488281 5.660156 -10.488281 M 3.503906 0 C 3.136719 0.398438 2.859375 0.769531 2.671875 1.113281 C 2.484375 1.457031 2.390625 1.773438 2.390625 2.0625 C 2.390625 2.4375 2.617188 2.765625 3.070312 3.046875 C 3.851562 3.53125 4.980469 3.773438 6.457031 3.773438 C 7.863281 3.773438 8.898438 3.523438 9.570312 3.03125 C 10.234375 2.53125 10.570312 2.003906 10.570312 1.441406 C 10.570312 1.035156 10.371094 0.746094 9.972656 0.574219 C 9.566406 0.402344 8.761719 0.300781 7.558594 0.269531 C 5.800781 0.222656 4.449219 0.132812 3.503906 0 Z M 3.503906 0 "/>
</g>
<g id="glyph-2-0">
<path d="M -5.320312 -10.980469 L -5.320312 -4.828125 L -2.8125 -3.75 C -2.195312 -3.484375 -1.734375 -3.351562 -1.429688 -3.351562 C -1.1875 -3.351562 -0.972656 -3.464844 -0.789062 -3.695312 C -0.605469 -3.925781 -0.488281 -4.425781 -0.433594 -5.191406 L 0 -5.191406 L 0 -0.1875 L -0.433594 -0.1875 C -0.550781 -0.851562 -0.703125 -1.28125 -0.890625 -1.476562 C -1.265625 -1.875 -2.027344 -2.316406 -3.175781 -2.800781 L -16.253906 -8.390625 L -16.253906 -8.800781 L -3.035156 -14.332031 C -1.972656 -14.777344 -1.28125 -15.179688 -0.964844 -15.546875 C -0.648438 -15.90625 -0.472656 -16.414062 -0.433594 -17.0625 L 0 -17.0625 L 0 -10.792969 L -0.433594 -10.792969 C -0.464844 -11.425781 -0.570312 -11.851562 -0.75 -12.078125 C -0.929688 -12.296875 -1.148438 -12.410156 -1.40625 -12.410156 C -1.75 -12.410156 -2.292969 -12.253906 -3.035156 -11.941406 L -5.320312 -10.980469 M -6.1875 -10.652344 L -12.609375 -7.957031 L -6.1875 -5.191406 Z M -6.1875 -10.652344 "/>
</g>
<g id="glyph-2-1">
<path d="M -16.253906 -14.449219 L -10.851562 -14.8125 L -10.851562 -14.449219 C -12.46875 -13.964844 -13.632812 -13.273438 -14.34375 -12.375 C -15.054688 -11.476562 -15.410156 -10.398438 -15.410156 -9.140625 C -15.410156 -8.085938 -15.140625 -7.132812 -14.609375 -6.28125 C -14.070312 -5.429688 -13.21875 -4.757812 -12.046875 -4.273438 C -10.875 -3.78125 -9.417969 -3.539062 -7.675781 -3.539062 C -6.238281 -3.539062 -4.992188 -3.769531 -3.9375 -4.230469 C -2.882812 -4.691406 -2.074219 -5.382812 -1.511719 -6.3125 C -0.949219 -7.234375 -0.667969 -8.292969 -0.667969 -9.480469 C -0.667969 -10.511719 -0.886719 -11.421875 -1.328125 -12.210938 C -1.769531 -13 -2.648438 -13.867188 -3.960938 -14.8125 L -3.726562 -15.175781 C -2.3125 -14.378906 -1.277344 -13.449219 -0.621094 -12.386719 C 0.0351562 -11.324219 0.363281 -10.0625 0.363281 -8.601562 C 0.363281 -5.96875 -0.613281 -3.929688 -2.566406 -2.484375 C -4.019531 -1.40625 -5.730469 -0.867188 -7.699219 -0.867188 C -9.285156 -0.867188 -10.742188 -1.222656 -12.070312 -1.933594 C -13.398438 -2.644531 -14.425781 -3.621094 -15.15625 -4.871094 C -15.886719 -6.113281 -16.253906 -7.476562 -16.253906 -8.953125 C -16.253906 -10.101562 -15.972656 -11.234375 -15.410156 -12.351562 C -15.238281 -12.679688 -15.152344 -12.914062 -15.152344 -13.054688 C -15.152344 -13.265625 -15.226562 -13.449219 -15.375 -13.605469 C -15.585938 -13.808594 -15.878906 -13.953125 -16.253906 -14.039062 Z M -16.253906 -14.449219 "/>
</g>
<g id="glyph-2-2">
<path d="M -15.023438 -4.910156 L -8.777344 -4.910156 L -8.777344 -7.804688 C -8.777344 -8.46875 -8.921875 -8.953125 -9.21875 -9.265625 C -9.507812 -9.570312 -10.089844 -9.777344 -10.957031 -9.878906 L -10.957031 -10.3125 L -5.578125 -10.3125 L -5.578125 -9.878906 C -6.195312 -9.871094 -6.648438 -9.789062 -6.9375 -9.640625 C -7.226562 -9.484375 -7.441406 -9.273438 -7.585938 -9.007812 C -7.730469 -8.734375 -7.804688 -8.335938 -7.804688 -7.804688 L -7.804688 -4.910156 L -2.8125 -4.910156 C -2.007812 -4.910156 -1.476562 -4.960938 -1.21875 -5.0625 C -1.023438 -5.140625 -0.855469 -5.304688 -0.714844 -5.554688 C -0.527344 -5.898438 -0.433594 -6.257812 -0.433594 -6.632812 L -0.433594 -7.207031 L 0 -7.207031 L 0 -0.386719 L -0.433594 -0.386719 L -0.433594 -0.949219 C -0.433594 -1.605469 -0.625 -2.082031 -1.007812 -2.378906 C -1.257812 -2.566406 -1.859375 -2.660156 -2.8125 -2.660156 L -13.078125 -2.660156 C -13.882812 -2.660156 -14.414062 -2.609375 -14.671875 -2.507812 C -14.867188 -2.429688 -15.035156 -2.269531 -15.175781 -2.027344 C -15.363281 -1.691406 -15.457031 -1.332031 -15.457031 -0.949219 L -15.457031 -0.386719 L -15.890625 -0.386719 L -15.890625 -12.210938 L -12.398438 -12.363281 L -12.398438 -11.953125 C -13.140625 -11.75 -13.683594 -11.515625 -14.03125 -11.242188 C -14.378906 -10.976562 -14.632812 -10.640625 -14.789062 -10.25 C -14.945312 -9.851562 -15.023438 -9.242188 -15.023438 -8.414062 Z M -15.023438 -4.910156 "/>
</g>
</g>
<clipPath id="clip-0">
<path clip-rule="nonzero" d="M 59.039062 277 L 668.199219 277 L 668.199219 278 L 59.039062 278 Z M 59.039062 277 "/>
</clipPath>
<clipPath id="clip-1">
<path clip-rule="nonzero" d="M 59.039062 255 L 668.199219 255 L 668.199219 257 L 59.039062 257 Z M 59.039062 255 "/>
</clipPath>
<clipPath id="clip-2">
<path clip-rule="nonzero" d="M 59.039062 298 L 668.199219 298 L 668.199219 300 L 59.039062 300 Z M 59.039062 298 "/>
</clipPath>
</defs>
<rect x="-69.7" y="-36.7" width="836.4" height="440.4" fill="rgb(100%, 100%, 100%)" fill-opacity="1"/>
<path fill="none" stroke-width="1.5" stroke-linecap="round" stroke-linejoin="round" stroke="rgb(0%, 0%, 0%)" stroke-opacity="1" stroke-miterlimit="10" d="M 81.601562 277.589844 L 81.601562 39.191406 "/>
<path fill="none" stroke-width="1.5" stroke-linecap="round" stroke-linejoin="round" stroke="rgb(0%, 0%, 0%)" stroke-opacity="1" stroke-miterlimit="10" d="M 93.351562 277.589844 L 93.351562 43.257812 "/>
<path fill="none" stroke-width="1.5" stroke-linecap="round" stroke-linejoin="round" stroke="rgb(0%, 0%, 0%)" stroke-opacity="1" stroke-miterlimit="10" d="M 105.101562 277.589844 L 105.101562 49.296875 "/>
<path fill="none" stroke-width="1.5" stroke-linecap="round" stroke-linejoin="round" stroke="rgb(0%, 0%, 0%)" stroke-opacity="1" stroke-miterlimit="10" d="M 116.855469 277.589844 L 116.855469 56.375 "/>
<path fill="none" stroke-width="1.5" stroke-linecap="round" stroke-linejoin="round" stroke="rgb(0%, 0%, 0%)" stroke-opacity="1" stroke-miterlimit="10" d="M 128.605469 277.589844 L 128.605469 62.835938 "/>
<path fill="none" stroke-width="1.5" stroke-linecap="round" stroke-linejoin="round" stroke="rgb(0%, 0%, 0%)" stroke-opacity="1" stroke-miterlimit="10" d="M 140.355469 277.589844 L 140.355469 67.453125 "/>
<path fill="none" stroke-width="1.5" stroke-linecap="round" stroke-linejoin="round" stroke="rgb(0%, 0%, 0%)" stroke-opacity="1" stroke-miterlimit="10" d="M 152.105469 277.589844 L 152.105469 69.878906 "/>
<path fill="none" stroke-width="1.5" stroke-linecap="round" stroke-linejoin="round" stroke="rgb(0%, 0%, 0%)" stroke-opacity="1" stroke-miterlimit="10" d="M 163.855469 277.589844 L 163.855469 68.9375 "/>
<path fill="none" stroke-width="1.5" stroke-linecap="round" stroke-linejoin="round" stroke="rgb(0%, 0%, 0%)" stroke-opacity="1" stroke-miterlimit="10" d="M 175.609375 277.589844 L 175.609375 65.726562 "/>
<path fill="none" stroke-width="1.5" stroke-linecap="round" stroke-linejoin="round" stroke="rgb(0%, 0%, 0%)" stroke-opacity="1" stroke-miterlimit="10" d="M 187.359375 277.589844 L 187.359375 61.070312 "/>
<path fill="none" stroke-width="1.5" stroke-linecap="round" stroke-linejoin="round" stroke="rgb(0%, 0%, 0%)" stroke-opacity="1" stroke-miterlimit="10" d="M 199.109375 277.589844 L 199.109375 56.769531 "/>
<path fill="none" stroke-width="1.5" stroke-linecap="round" stroke-linejoin="round" stroke="rgb(0%, 0%, 0%)" stroke-opacity="1" stroke-miterlimit="10" d="M 210.859375 277.589844 L 210.859375 53.972656 "/>
<path fill="none" stroke-width="1.5" stroke-linecap="round" stroke-linejoin="round" stroke="rgb(0%, 0%, 0%)" stroke-opacity="1" stroke-miterlimit="10" d="M 222.609375 277.589844 L 222.609375 53.6875 "/>
<path fill="none" stroke-width="1.5" stroke-linecap="round" stroke-linejoin="round" stroke="rgb(0%, 0%, 0%)" stroke-opacity="1" stroke-miterlimit="10" d="M 234.363281 277.589844 L 234.363281 57.425781 "/>
<path fill="none" stroke-width="1.5" stroke-linecap="round" stroke-linejoin="round" stroke="rgb(0%, 0%, 0%)" stroke-opacity="1" stroke-miterlimit="10" d="M 246.113281 277.589844 L 246.113281 63.058594 "/>
<path fill="none" stroke-width="1.5" stroke-linecap="round" stroke-linejoin="round" stroke="rgb(0%, 0%, 0%)" stroke-opacity="1" stroke-miterlimit="10" d="M 257.863281 277.589844 L 257.863281 69.519531 "/>
<path fill="none" stroke-width="1.5" stroke-linecap="round" stroke-linejoin="round" stroke="rgb(0%, 0%, 0%)" stroke-opacity="1" stroke-miterlimit="10" d="M 269.613281 277.589844 L 269.613281 75.714844 "/>
<path fill="none" stroke-width="1.5" stroke-linecap="round" stroke-linejoin="round" stroke="rgb(0%, 0%, 0%)" stroke-opacity="1" stroke-miterlimit="10" d="M 281.363281 277.589844 L 281.363281 80.210938 "/>
<path fill="none" stroke-width="1.5" stroke-linecap="round" stroke-linejoin="round" stroke="rgb(0%, 0%, 0%)" stroke-opacity="1" stroke-miterlimit="10" d="M 293.117188 277.589844 L 293.117188 82.761719 "/>
<path fill="none" stroke-width="1.5" stroke-linecap="round" stroke-linejoin="round" stroke="rgb(0%, 0%, 0%)" stroke-opacity="1" stroke-miterlimit="10" d="M 304.867188 277.589844 L 304.867188 82.015625 "/>
<path fill="none" stroke-width="1.5" stroke-linecap="round" stroke-linejoin="round" stroke="rgb(0%, 0%, 0%)" stroke-opacity="1" stroke-miterlimit="10" d="M 316.617188 277.589844 L 316.617188 79.042969 "/>
<path fill="none" stroke-width="1.5" stroke-linecap="round" stroke-linejoin="round" stroke="rgb(0%, 0%, 0%)" stroke-opacity="1" stroke-miterlimit="10" d="M 328.367188 277.589844 L 328.367188 74.921875 "/>
<path fill="none" stroke-width="1.5" stroke-linecap="round" stroke-linejoin="round" stroke="rgb(0%, 0%, 0%)" stroke-opacity="1" stroke-miterlimit="10" d="M 340.117188 277.589844 L 340.117188 70.886719 "/>
<path fill="none" stroke-width="1.5" stroke-linecap="round" stroke-linejoin="round" stroke="rgb(0%, 0%, 0%)" stroke-opacity="1" stroke-miterlimit="10" d="M 351.871094 277.589844 L 351.871094 68.074219 "/>
<path fill="none" stroke-width="1.5" stroke-linecap="round" stroke-linejoin="round" stroke="rgb(0%, 0%, 0%)" stroke-opacity="1" stroke-miterlimit="10" d="M 363.621094 277.589844 L 363.621094 67.613281 "/>
<path fill="none" stroke-width="1.5" stroke-linecap="round" stroke-linejoin="round" stroke="rgb(0%, 0%, 0%)" stroke-opacity="1" stroke-miterlimit="10" d="M 375.371094 277.589844 L 375.371094 70.636719 "/>
<path fill="none" stroke-width="1.5" stroke-linecap="round" stroke-linejoin="round" stroke="rgb(0%, 0%, 0%)" stroke-opacity="1" stroke-miterlimit="10" d="M 387.121094 277.589844 L 387.121094 76.023438 "/>
<path fill="none" stroke-width="1.5" stroke-linecap="round" stroke-linejoin="round" stroke="rgb(0%, 0%, 0%)" stroke-opacity="1" stroke-miterlimit="10" d="M 398.871094 277.589844 L 398.871094 82.511719 "/>
<path fill="none" stroke-width="1.5" stroke-linecap="round" stroke-linejoin="round" stroke="rgb(0%, 0%, 0%)" stroke-opacity="1" stroke-miterlimit="10" d="M 410.625 277.589844 L 410.625 88.550781 "/>
<path fill="none" stroke-width="1.5" stroke-linecap="round" stroke-linejoin="round" stroke="rgb(0%, 0%, 0%)" stroke-opacity="1" stroke-miterlimit="10" d="M 422.375 277.589844 L 422.375 92.808594 "/>
<path fill="none" stroke-width="1.5" stroke-linecap="round" stroke-linejoin="round" stroke="rgb(0%, 0%, 0%)" stroke-opacity="1" stroke-miterlimit="10" d="M 434.125 277.589844 L 434.125 94.542969 "/>
<path fill="none" stroke-width="1.5" stroke-linecap="round" stroke-linejoin="round" stroke="rgb(0%, 0%, 0%)" stroke-opacity="1" stroke-miterlimit="10" d="M 445.875 277.589844 L 445.875 93.957031 "/>
<path fill="none" stroke-width="1.5" stroke-linecap="round" stroke-linejoin="round" stroke="rgb(0%, 0%, 0%)" stroke-opacity="1" stroke-miterlimit="10" d="M 457.625 277.589844 L 457.625 91.183594 "/>
<path fill="none" stroke-width="1.5" stroke-linecap="round" stroke-linejoin="round" stroke="rgb(0%, 0%, 0%)" stroke-opacity="1" stroke-miterlimit="10" d="M 469.375 277.589844 L 469.375 87.46875 "/>
<path fill="none" stroke-width="1.5" stroke-linecap="round" stroke-linejoin="round" stroke="rgb(0%, 0%, 0%)" stroke-opacity="1" stroke-miterlimit="10" d="M 481.128906 277.589844 L 481.128906 83.449219 "/>
<path fill="none" stroke-width="1.5" stroke-linecap="round" stroke-linejoin="round" stroke="rgb(0%, 0%, 0%)" stroke-opacity="1" stroke-miterlimit="10" d="M 492.878906 277.589844 L 492.878906 80.988281 "/>
<path fill="none" stroke-width="1.5" stroke-linecap="round" stroke-linejoin="round" stroke="rgb(0%, 0%, 0%)" stroke-opacity="1" stroke-miterlimit="10" d="M 504.628906 277.589844 L 504.628906 80.917969 "/>
<path fill="none" stroke-width="1.5" stroke-linecap="round" stroke-linejoin="round" stroke="rgb(0%, 0%, 0%)" stroke-opacity="1" stroke-miterlimit="10" d="M 516.378906 277.589844 L 516.378906 84.214844 "/>
<path fill="none" stroke-width="1.5" stroke-linecap="round" stroke-linejoin="round" stroke="rgb(0%, 0%, 0%)" stroke-opacity="1" stroke-miterlimit="10" d="M 528.128906 277.589844 L 528.128906 89.53125 "/>
<path fill="none" stroke-width="1.5" stroke-linecap="round" stroke-linejoin="round" stroke="rgb(0%, 0%, 0%)" stroke-opacity="1" stroke-miterlimit="10" d="M 539.882812 277.589844 L 539.882812 95.84375 "/>
<path fill="none" stroke-width="1.5" stroke-linecap="round" stroke-linejoin="round" stroke="rgb(0%, 0%, 0%)" stroke-opacity="1" stroke-miterlimit="10" d="M 551.632812 277.589844 L 551.632812 101.582031 "/>
<path fill="none" stroke-width="1.5" stroke-linecap="round" stroke-linejoin="round" stroke="rgb(0%, 0%, 0%)" stroke-opacity="1" stroke-miterlimit="10" d="M 563.382812 277.589844 L 563.382812 105.824219 "/>
<path fill="none" stroke-width="1.5" stroke-linecap="round" stroke-linejoin="round" stroke="rgb(0%, 0%, 0%)" stroke-opacity="1" stroke-miterlimit="10" d="M 575.132812 277.589844 L 575.132812 108.007812 "/>
<path fill="none" stroke-width="1.5" stroke-linecap="round" stroke-linejoin="round" stroke="rgb(0%, 0%, 0%)" stroke-opacity="1" stroke-miterlimit="10" d="M 586.882812 277.589844 L 586.882812 107.792969 "/>
<path fill="none" stroke-width="1.5" stroke-linecap="round" stroke-linejoin="round" stroke="rgb(0%, 0%, 0%)" stroke-opacity="1" stroke-miterlimit="10" d="M 598.636719 277.589844 L 598.636719 105.503906 "/>
<path fill="none" stroke-width="1.5" stroke-linecap="round" stroke-linejoin="round" stroke="rgb(0%, 0%, 0%)" stroke-opacity="1" stroke-miterlimit="10" d="M 610.386719 277.589844 L 610.386719 102.066406 "/>
<path fill="none" stroke-width="1.5" stroke-linecap="round" stroke-linejoin="round" stroke="rgb(0%, 0%, 0%)" stroke-opacity="1" stroke-miterlimit="10" d="M 622.136719 277.589844 L 622.136719 98.382812 "/>
<path fill="none" stroke-width="1.5" stroke-linecap="round" stroke-linejoin="round" stroke="rgb(0%, 0%, 0%)" stroke-opacity="1" stroke-miterlimit="10" d="M 633.886719 277.589844 L 633.886719 96.117188 "/>
<path fill="none" stroke-width="1.5" stroke-linecap="round" stroke-linejoin="round" stroke="rgb(0%, 0%, 0%)" stroke-opacity="1" stroke-miterlimit="10" d="M 645.636719 277.589844 L 645.636719 95.761719 "/>
<path fill="none" stroke-width="0.75" stroke-linecap="round" stroke-linejoin="round" stroke="rgb(0%, 0%, 0%)" stroke-opacity="1" stroke-miterlimit="10" d="M 81.601562 309.398438 L 551.632812 309.398438 "/>
<path fill="none" stroke-width="0.75" stroke-linecap="round" stroke-linejoin="round" stroke="rgb(0%, 0%, 0%)" stroke-opacity="1" stroke-miterlimit="10" d="M 81.601562 309.398438 L 81.601562 316.601562 "/>
<path fill="none" stroke-width="0.75" stroke-linecap="round" stroke-linejoin="round" stroke="rgb(0%, 0%, 0%)" stroke-opacity="1" stroke-miterlimit="10" d="M 199.109375 309.398438 L 199.109375 316.601562 "/>
<path fill="none" stroke-width="0.75" stroke-linecap="round" stroke-linejoin="round" stroke="rgb(0%, 0%, 0%)" stroke-opacity="1" stroke-miterlimit="10" d="M 316.617188 309.398438 L 316.617188 316.601562 "/>
<path fill="none" stroke-width="0.75" stroke-linecap="round" stroke-linejoin="round" stroke="rgb(0%, 0%, 0%)" stroke-opacity="1" stroke-miterlimit="10" d="M 434.125 309.398438 L 434.125 316.601562 "/>
<path fill="none" stroke-width="0.75" stroke-linecap="round" stroke-linejoin="round" stroke="rgb(0%, 0%, 0%)" stroke-opacity="1" stroke-miterlimit="10" d="M 551.632812 309.398438 L 551.632812 316.601562 "/>
<g fill="rgb(0%, 0%, 0%)" fill-opacity="1">
<use xlink:href="#glyph-0-0" x="77.101562" y="328.121094"/>
</g>
<g fill="rgb(0%, 0%, 0%)" fill-opacity="1">
<use xlink:href="#glyph-0-1" x="190.109375" y="328.121094"/>
<use xlink:href="#glyph-0-0" x="199.109375" y="328.121094"/>
</g>
<g fill="rgb(0%, 0%, 0%)" fill-opacity="1">
<use xlink:href="#glyph-0-2" x="307.617188" y="328.121094"/>
<use xlink:href="#glyph-0-0" x="316.617188" y="328.121094"/>
</g>
<g fill="rgb(0%, 0%, 0%)" fill-opacity="1">
<use xlink:href="#glyph-0-3" x="425.125" y="328.121094"/>
<use xlink:href="#glyph-0-0" x="434.125" y="328.121094"/>
</g>
<g fill="rgb(0%, 0%, 0%)" fill-opacity="1">
<use xlink:href="#glyph-0-4" x="542.632812" y="328.121094"/>
<use xlink:href="#glyph-0-0" x="551.632812" y="328.121094"/>
</g>
<path fill="none" stroke-width="0.75" stroke-linecap="round" stroke-linejoin="round" stroke="rgb(0%, 0%, 0%)" stroke-opacity="1" stroke-miterlimit="10" d="M 59.039062 277.589844 L 59.039062 39.191406 "/>
<path fill="none" stroke-width="0.75" stroke-linecap="round" stroke-linejoin="round" stroke="rgb(0%, 0%, 0%)" stroke-opacity="1" stroke-miterlimit="10" d="M 59.039062 277.589844 L 51.839844 277.589844 "/>
<path fill="none" stroke-width="0.75" stroke-linecap="round" stroke-linejoin="round" stroke="rgb(0%, 0%, 0%)" stroke-opacity="1" stroke-miterlimit="10" d="M 59.039062 229.910156 L 51.839844 229.910156 "/>
<path fill="none" stroke-width="0.75" stroke-linecap="round" stroke-linejoin="round" stroke="rgb(0%, 0%, 0%)" stroke-opacity="1" stroke-miterlimit="10" d="M 59.039062 182.230469 L 51.839844 182.230469 "/>
<path fill="none" stroke-width="0.75" stroke-linecap="round" stroke-linejoin="round" stroke="rgb(0%, 0%, 0%)" stroke-opacity="1" stroke-miterlimit="10" d="M 59.039062 134.550781 L 51.839844 134.550781 "/>
<path fill="none" stroke-width="0.75" stroke-linecap="round" stroke-linejoin="round" stroke="rgb(0%, 0%, 0%)" stroke-opacity="1" stroke-miterlimit="10" d="M 59.039062 86.871094 L 51.839844 86.871094 "/>
<path fill="none" stroke-width="0.75" stroke-linecap="round" stroke-linejoin="round" stroke="rgb(0%, 0%, 0%)" stroke-opacity="1" stroke-miterlimit="10" d="M 59.039062 39.191406 L 51.839844 39.191406 "/>
<g fill="rgb(0%, 0%, 0%)" fill-opacity="1">
<use xlink:href="#glyph-0-0" x="29.339844" y="284.050781"/>
<use xlink:href="#glyph-0-5" x="38.339844" y="284.050781"/>
<use xlink:href="#glyph-0-0" x="42.839844" y="284.050781"/>
</g>
<g fill="rgb(0%, 0%, 0%)" fill-opacity="1">
<use xlink:href="#glyph-0-0" x="29.339844" y="236.371094"/>
<use xlink:href="#glyph-0-5" x="38.339844" y="236.371094"/>
<use xlink:href="#glyph-0-2" x="42.839844" y="236.371094"/>
</g>
<g fill="rgb(0%, 0%, 0%)" fill-opacity="1">
<use xlink:href="#glyph-0-0" x="29.339844" y="188.691406"/>
<use xlink:href="#glyph-0-5" x="38.339844" y="188.691406"/>
<use xlink:href="#glyph-0-4" x="42.839844" y="188.691406"/>
</g>
<g fill="rgb(0%, 0%, 0%)" fill-opacity="1">
<use xlink:href="#glyph-0-0" x="29.339844" y="141.011719"/>
<use xlink:href="#glyph-0-5" x="38.339844" y="141.011719"/>
<use xlink:href="#glyph-0-6" x="42.839844" y="141.011719"/>
</g>
<g fill="rgb(0%, 0%, 0%)" fill-opacity="1">
<use xlink:href="#glyph-0-0" x="29.339844" y="93.332031"/>
<use xlink:href="#glyph-0-5" x="38.339844" y="93.332031"/>
<use xlink:href="#glyph-0-7" x="42.839844" y="93.332031"/>
</g>
<g fill="rgb(0%, 0%, 0%)" fill-opacity="1">
<use xlink:href="#glyph-0-1" x="29.339844" y="45.652344"/>
<use xlink:href="#glyph-0-5" x="38.339844" y="45.652344"/>
<use xlink:href="#glyph-0-0" x="42.839844" y="45.652344"/>
</g>
<path fill="none" stroke-width="0.75" stroke-linecap="round" stroke-linejoin="round" stroke="rgb(0%, 0%, 0%)" stroke-opacity="1" stroke-miterlimit="10" d="M 59.039062 28.800781 L 59.039062 309.398438 L 668.199219 309.398438 "/>
<g fill="rgb(0%, 0%, 0%)" fill-opacity="1">
<use xlink:href="#glyph-1-0" x="344.964844" y="356.921875"/>
<use xlink:href="#glyph-1-1" x="359.625" y="356.921875"/>
<use xlink:href="#glyph-1-2" x="370.277344" y="356.921875"/>
</g>
<g fill="rgb(0%, 0%, 0%)" fill-opacity="1">
<use xlink:href="#glyph-2-0" x="20.160156" y="192.445312"/>
<use xlink:href="#glyph-2-1" x="20.160156" y="175.113281"/>
<use xlink:href="#glyph-2-2" x="20.160156" y="159.105469"/>
</g>
<g clip-path="url(#clip-0)">
<path fill="none" stroke-width="0.75" stroke-linecap="round" stroke-linejoin="round" stroke="rgb(0%, 0%, 0%)" stroke-opacity="1" stroke-miterlimit="10" d="M 59.039062 277.589844 L 668.199219 277.589844 "/>
</g>
<g clip-path="url(#clip-1)">
<path fill="none" stroke-width="0.75" stroke-linecap="round" stroke-linejoin="round" stroke="rgb(54.509804%, 0%, 0%)" stroke-opacity="1" stroke-dasharray="3 3" stroke-miterlimit="10" d="M 59.039062 256.175781 L 668.199219 256.175781 "/>
</g>
<g clip-path="url(#clip-2)">
<path fill="none" stroke-width="0.75" stroke-linecap="round" stroke-linejoin="round" stroke="rgb(54.509804%, 0%, 0%)" stroke-opacity="1" stroke-dasharray="3 3" stroke-miterlimit="10" d="M 59.039062 299.007812 L 668.199219 299.007812 "/>
</g>
</svg>
